<svg width="62" height="56" viewBox="0 0 62 56" fill="none" xmlns="http://www.w3.org/2000/svg">
<path d="M6.35662 13.3245C12.4503 2.95731 25.7986 -2.06968 37.6299 1.41054C37.8993 1.49044 38.1719 1.57672 38.4413 1.66621C40.609 2.39152 42.6884 3.35626 44.6408 4.54243C45.1315 4.83644 45.6029 5.12726 45.9525 5.37014C58.6466 14.1266 62.1135 31.8953 52.3509 44.7008C43.3355 56.5253 26.8986 59.1459 14.5285 50.8975C4.49645 44.1863 0.551612 31.8825 3.30338 20.1699C3.58882 18.9587 4.93263 15.7533 6.35662 13.3245ZM43.3804 46.4362C51.5972 41.2398 56.4945 28.5397 50.2534 17.1946C47.337 11.8469 42.4082 7.8726 36.5512 6.14595C30.6941 4.4193 24.3887 5.08172 19.0218 7.9875C18.6562 8.18564 18.2938 8.39337 17.941 8.62666C6.59074 15.5711 4.90697 29.214 9.30081 37.4464C9.44193 37.2674 9.57984 37.1076 9.69209 36.9382C15.6788 28.4396 21.6763 19.9462 27.6844 11.4581C28.3901 10.4217 29.198 9.45813 30.0962 8.58192C32.957 5.92301 37.6716 6.86897 39.1405 10.4834C39.6119 11.725 39.9108 13.0249 40.0289 14.3471C40.898 22.3974 41.7094 30.454 42.5401 38.5106C42.8159 41.1471 43.0949 43.7805 43.3804 46.4362ZM36.2412 16.1624C36.2249 15.2052 36.0549 14.2568 35.7376 13.3532C35.0962 11.5189 33.4926 11.1162 32.0911 12.4776C31.2755 13.2809 30.577 14.1942 30.016 15.1908C24.6953 24.5194 19.4034 33.8735 14.0795 43.1924C13.7171 43.8316 13.8454 44.1512 14.3265 44.5794C17.8498 47.8529 22.3114 49.9479 27.0879 50.5715C30.0204 50.9771 33.0045 50.8023 35.8691 50.057C36.0872 50.0013 36.2802 49.8744 36.4174 49.6966C36.5546 49.5187 36.6281 49.3002 36.626 49.0759C36.5811 45.0588 36.3759 26.1237 36.2412 16.1624Z" fill="#5C1A00"/>
<path d="M30.2245 55.998C24.568 55.9883 19.0424 54.3006 14.3521 51.15C4.55419 44.605 0.096201 32.413 2.99229 20.0836C3.31301 18.7701 4.68889 15.5328 6.08081 13.1615C9.05066 8.09617 13.8967 4.08544 19.721 1.87715C25.4762 -0.325782 31.7956 -0.597318 37.7197 1.10376C37.9955 1.18685 38.2713 1.27314 38.5439 1.36582C40.7326 2.08953 42.8335 3.05424 44.8076 4.24204C45.4009 4.59997 45.821 4.86522 46.1321 5.08253C49.2618 7.24929 51.9212 10.0224 53.9512 13.2362C55.9813 16.45 57.3404 20.0386 57.9474 23.7876C58.5472 27.4803 58.3829 31.2563 57.4646 34.8835C56.5463 38.5107 54.8934 41.9125 52.6074 44.8798C49.996 48.3341 46.6147 51.1362 42.7302 53.0652C38.8458 54.9941 34.5646 55.9971 30.2245 55.9948V55.998ZM30.016 0.637177C20.5837 0.637177 11.3278 5.48521 6.63565 13.4843C5.17959 15.961 3.87747 19.1345 3.61769 20.2306C0.782538 32.2948 5.13148 44.2247 14.7081 50.6195C27.0783 58.8678 43.1527 56.2345 52.0943 44.4963C54.3271 41.5989 55.9418 38.2771 56.8391 34.7351C57.7364 31.1931 57.8975 27.5057 57.3124 23.8994C56.7184 20.236 55.3899 16.7293 53.4062 13.5887C51.4226 10.448 48.8243 7.7377 45.7665 5.61943C45.465 5.4117 45.0545 5.15284 44.4836 4.8013C42.5501 3.63396 40.4923 2.6843 38.3483 1.96983C38.0789 1.88034 37.8095 1.79725 37.5433 1.71736C35.0993 0.999004 32.5642 0.635208 30.016 0.637177ZM30.1988 51.0957C29.1442 51.0963 28.0907 51.0237 27.0462 50.8783C22.2067 50.2377 17.6862 48.1161 14.1084 44.8063C13.5824 44.3397 13.3258 43.8476 13.7877 43.0263C16.3534 38.5202 18.9192 34.0098 21.4849 29.4952C24.179 24.7495 26.9628 19.8439 29.7178 15.0247C30.2919 14.0011 31.0089 13.0639 31.8473 12.2411C32.6074 11.5125 33.4509 11.2153 34.2399 11.3974C35.0289 11.5796 35.6639 12.2379 36.0199 13.235C36.3573 14.1743 36.5404 15.1617 36.5619 16.1592C36.7126 26.6797 36.9275 46.8133 36.9532 49.0759C36.9566 49.3718 36.8601 49.6603 36.6793 49.8951C36.4984 50.1298 36.2436 50.2971 35.9557 50.3702C34.0762 50.8594 32.1415 51.1065 30.1988 51.1052V51.0957ZM33.7941 11.995C33.2252 12.0356 32.6932 12.2904 32.306 12.7077C31.5131 13.4858 30.834 14.3712 30.2886 15.3379C27.5337 20.1699 24.7498 25.0755 22.0558 29.818C19.49 34.3326 16.9243 38.844 14.3586 43.3522C14.0827 43.8316 14.1533 43.9914 14.5382 44.3397C18.0188 47.564 22.4187 49.6311 27.1296 50.2552C30.0211 50.6591 32.9644 50.4875 35.789 49.7502C35.9375 49.7124 36.0691 49.626 36.1627 49.505C36.2563 49.3839 36.3065 49.2351 36.3053 49.0823C36.2797 46.8197 36.0648 26.6893 35.914 16.1656C35.8983 15.2423 35.7348 14.3275 35.4298 13.4555C35.1475 12.6694 34.6761 12.1772 34.1052 12.027C34.003 12.0052 33.8987 11.9945 33.7941 11.995ZM43.1142 46.9763L42.2162 38.5426C42.0024 36.3992 41.7821 34.2549 41.5555 32.1094C40.959 26.2963 40.34 20.285 39.7017 14.3759C39.5866 13.0814 39.2953 11.8084 38.8358 10.5921C38.5206 9.8149 38.0185 9.12685 37.3736 8.58852C36.7288 8.05018 35.961 7.67807 35.1379 7.50495C34.2897 7.31884 33.4089 7.34055 32.571 7.56821C31.7331 7.79587 30.9631 8.22268 30.3271 8.81203C29.4443 9.66921 28.6512 10.6136 27.9602 11.6307C21.9457 20.1294 15.9397 28.6271 9.94226 37.1236C9.85246 37.2578 9.74662 37.3889 9.62154 37.5263L9.23989 38.028L9.01218 37.5966C4.40024 28.9392 6.44643 15.2899 17.771 8.32947C18.1302 8.10896 18.499 7.89803 18.8679 7.69031C24.3123 4.75219 30.704 4.08596 36.6408 5.83779C42.5776 7.58961 47.5746 11.6164 50.5356 17.0348C56.9019 28.6036 51.8666 41.4411 43.5504 46.7014L43.1142 46.9763ZM33.9737 6.74435C34.4117 6.74479 34.8483 6.79301 35.2758 6.88816C36.2049 7.07956 37.0719 7.49728 37.7995 8.10402C38.527 8.71075 39.0924 9.48761 39.4452 10.3652C39.9277 11.6365 40.233 12.9677 40.3528 14.3216C40.9942 20.2242 41.61 26.2387 42.2065 32.0519C42.4204 34.1973 42.6406 36.3407 42.8672 38.4818L43.6562 45.8833C51.4657 40.6102 56.0616 28.3895 49.9872 17.348C47.1082 12.0802 42.2501 8.16503 36.4783 6.46122C30.7065 4.7574 24.4922 5.40398 19.1982 8.25916C18.839 8.4541 18.4798 8.66183 18.1302 8.87595C7.2803 15.5232 5.17318 28.4406 9.35214 36.8584L9.41628 36.7625C15.4201 28.2553 21.4208 19.7598 27.4182 11.276C28.1311 10.2222 28.9511 9.24441 29.8653 8.35823C30.9801 7.32109 32.4485 6.74428 33.9737 6.74435Z" fill="black"/>
<path d="M7.96024 13.3245C14.0539 2.95731 27.4022 -2.06968 39.2335 1.41054C39.5029 1.49044 39.7755 1.57672 40.0449 1.66621C42.2126 2.39152 44.2921 3.35626 46.2444 4.54243C46.7351 4.83644 47.2066 5.12726 47.5529 5.37014C60.2502 14.1266 63.7172 31.8953 53.9673 44.7008C44.9519 56.5253 28.5151 59.1459 16.145 50.8975C6.1129 44.1863 2.16807 31.8825 4.91983 20.1699C5.19244 18.9587 6.53625 15.7533 7.96024 13.3245ZM44.984 46.4362C53.2008 41.2398 58.0982 28.5397 51.857 17.1946C48.9406 11.8469 44.0118 7.8726 38.1548 6.14595C32.2978 4.4193 25.9923 5.08172 20.6254 7.9875C20.2598 8.18564 19.8974 8.39337 19.5414 8.62666C8.19437 15.5711 6.5106 29.214 10.9044 37.4464C11.0456 37.2674 11.1835 37.1076 11.2957 36.9382C17.2825 28.4396 23.2799 19.9462 29.288 11.4581C29.9937 10.4217 30.8017 9.45813 31.6998 8.58192C34.5606 5.92301 39.2752 6.86897 40.7441 10.4834C41.216 11.7247 41.5138 13.0248 41.6293 14.3471C42.5016 22.3974 43.313 30.454 44.1437 38.5106C44.4195 41.1471 44.6986 43.7805 44.984 46.4362ZM37.8448 16.1624C37.8286 15.2052 37.6586 14.2568 37.3413 13.3532C36.6998 11.5189 35.0962 11.1162 33.6947 12.4776C32.8782 13.28 32.1796 14.1935 31.6196 15.1908C26.2989 24.5194 21.0071 33.8735 15.6831 43.1924C15.3207 43.8316 15.449 44.1512 15.9269 44.5794C19.4518 47.8524 23.9143 49.9473 28.6915 50.5715C31.6241 50.9771 34.6081 50.8023 37.4728 50.057C37.6908 50.0013 37.8839 49.8744 38.0211 49.6966C38.1583 49.5187 38.2317 49.3002 38.2297 49.0759C38.1848 45.0588 37.9795 26.1237 37.8448 16.1624Z" fill="#BD3501"/>
<path d="M31.8281 55.9979C26.1716 55.9883 20.6461 54.3005 15.9557 51.1499C6.1578 44.6049 1.69981 32.4129 4.5959 20.0835C4.91661 18.7701 6.2925 15.5327 7.68442 13.1614C10.6543 8.0961 15.5003 4.08537 21.3246 1.87707C27.0797 -0.326085 33.3992 -0.597625 39.3233 1.10369C39.5991 1.18678 39.8749 1.27307 40.1475 1.36575C42.3362 2.08946 44.4371 3.05416 46.4112 4.24197C47.0077 4.60309 47.4279 4.88113 47.7357 5.08246C50.8655 7.24922 53.5248 10.0223 55.5548 13.2361C57.5849 16.45 58.944 20.0385 59.551 23.7875C60.1508 27.4803 59.9865 31.2562 59.0682 34.8834C58.1499 38.5106 56.497 41.9124 54.2111 44.8798C49.869 50.62 43.4727 54.4707 36.3534 55.6304C34.8573 55.8734 33.344 55.9963 31.8281 55.9979ZM31.6196 0.637104C22.1873 0.637104 12.9282 5.48513 8.23926 13.4842C6.7832 15.961 5.48108 19.1344 5.2213 20.2306C2.38615 32.2947 6.73509 44.2246 16.3117 50.6194C28.6819 58.8678 44.7563 56.2344 53.6979 44.4963C55.9307 41.5988 57.5454 38.277 58.4427 34.735C59.3401 31.193 59.5011 27.5056 58.916 23.8993C58.3224 20.2358 56.994 16.729 55.0103 13.5883C53.0266 10.4476 50.4282 7.73736 47.3701 5.61936C47.0751 5.41483 46.6645 5.15597 46.0873 4.80123C44.1537 3.63388 42.096 2.68423 39.9519 1.96975C39.6825 1.88027 39.4131 1.79718 39.1469 1.71728C36.7029 0.998932 34.1678 0.635136 31.6196 0.637104ZM31.8025 51.0956C30.7467 51.0963 29.6922 51.0237 28.6466 50.8783C23.8083 50.237 19.2889 48.1155 15.712 44.8063C15.186 44.3397 14.9294 43.8475 15.3913 43.0262C17.9699 38.5073 20.542 33.9853 23.1078 29.46C25.7954 24.727 28.56 19.8311 31.3214 15.0246C31.8955 14.0011 32.6125 13.0639 33.4509 12.2411C34.2078 11.5124 35.0545 11.2152 35.8435 11.3974C36.6325 11.5795 37.2643 12.2379 37.6235 13.2349C37.9609 14.1742 38.144 15.1617 38.1655 16.1591C38.3002 25.7465 38.4862 43.774 38.5568 49.0758C38.5602 49.3718 38.4638 49.6603 38.2829 49.895C38.102 50.1297 37.8472 50.2971 37.5593 50.3701C35.6798 50.8594 33.7451 51.1064 31.8025 51.1052V51.0956ZM35.3977 11.995C34.8288 12.0356 34.2968 12.2904 33.9096 12.7076C33.1167 13.4858 32.4376 14.3711 31.8923 15.3378C29.1437 20.1315 26.3663 25.0402 23.6786 29.7732C21.1129 34.2985 18.5407 38.8216 15.9622 43.3426C15.6863 43.8219 15.7569 43.9817 16.1418 44.3301C19.6224 47.5543 24.0223 49.6214 28.7332 50.2455C31.6247 50.6494 34.568 50.4778 37.3926 49.7406C37.5412 49.7027 37.6727 49.6164 37.7663 49.4953C37.8599 49.3743 37.9101 49.2255 37.9089 49.0726C37.8512 43.7708 37.6524 25.7433 37.5177 16.1559C37.5019 15.2327 37.3384 14.3178 37.0334 13.4459C36.7511 12.6597 36.2797 12.1676 35.7088 12.0173C35.6062 11.9987 35.5019 11.9912 35.3977 11.995ZM44.7178 46.9762L43.8198 38.5425L43.1783 32.1796C42.5786 26.3441 41.9596 20.3073 41.3182 14.3758C41.203 13.0813 40.9117 11.8083 40.4522 10.592C40.137 9.81483 39.6349 9.12678 38.9901 8.58844C38.3452 8.05011 37.5775 7.678 36.7543 7.50488C35.9008 7.31497 35.0136 7.33533 34.1697 7.56421C33.3259 7.79309 32.5507 8.22357 31.9115 8.81835C31.0306 9.67642 30.2387 10.6208 29.5478 11.637C23.5439 20.1315 17.5433 28.627 11.5459 37.1236C11.4561 37.2578 11.3502 37.3888 11.2251 37.5262L10.8435 38.028L10.6158 37.5997C6.00385 28.9423 8.05004 15.293 19.3746 8.33259C19.7338 8.11208 20.1026 7.90116 20.4715 7.69343C25.9159 4.75531 32.3076 4.08909 38.2444 5.84091C44.1812 7.59274 49.1782 11.6196 52.1392 17.0379C58.5055 28.6067 53.4702 41.4443 45.154 46.7046L44.7178 46.9762ZM35.5741 6.74428C36.0132 6.74454 36.4509 6.79276 36.8794 6.88809C37.8085 7.07948 38.6755 7.49721 39.4031 8.10394C40.1306 8.71068 40.696 9.48754 41.0488 10.3651C41.532 11.6362 41.8374 12.9675 41.9564 14.3215C42.5978 20.2465 43.2168 26.2834 43.8166 32.1221C44.0304 34.242 44.2442 36.3619 44.458 38.4818L45.247 45.8832C53.0565 40.6102 57.6524 28.3894 51.578 17.3479C48.7027 12.0763 43.8446 8.15781 38.0713 6.45355C32.2981 4.74929 26.082 5.39871 20.789 8.25909C20.433 8.45403 20.0738 8.66176 19.7242 8.87588C8.8839 15.5231 6.77678 28.4406 10.9557 36.8583L11.0199 36.7624C17.0237 28.2552 23.0244 19.7597 29.0218 11.2759C29.7347 10.2221 30.5547 9.24434 31.4689 8.35816C32.5829 7.32177 34.05 6.74502 35.5741 6.74428Z" fill="black"/>
<path d="M0.346497 21.8701L6.30224 21.3523C6.5075 21.3332 6.70634 21.3236 6.88915 21.3236C7.53569 21.2763 8.17774 21.4623 8.69801 21.8477C9.30053 22.3761 9.67889 23.1129 9.75638 23.909C9.78753 24.0782 9.81001 24.2488 9.82373 24.4203L10.1444 28.1626C10.2246 29.0862 9.96805 29.802 9.38114 30.2878C9.20976 30.4295 9.02377 30.5527 8.82629 30.6553C9.10329 30.7267 9.36964 30.8342 9.61847 30.9749C10.2791 31.3168 10.6576 31.9336 10.7346 32.8476L11.1162 37.1939C11.1317 37.4067 11.1317 37.6203 11.1162 37.8331C11.1185 38.0804 11.0916 38.3271 11.036 38.5681C10.8837 39.0995 10.5834 39.577 10.1701 39.9455C9.70827 40.3769 8.98024 40.6326 7.92508 40.7253L2.0463 41.2238L0.346497 21.8701ZM6.20923 38.1686H6.24772C6.31572 38.168 6.38271 38.1521 6.44376 38.1222C6.5048 38.0924 6.55837 38.0493 6.60051 37.9961C6.70446 37.8544 6.74824 37.6776 6.72238 37.5039L6.30224 32.7102C6.30164 32.511 6.23003 32.3184 6.10019 32.1669C6.06047 32.1211 6.01119 32.0845 5.95579 32.0597C5.90039 32.0348 5.84021 32.0224 5.77947 32.0231H5.73777H5.6576L6.20923 38.1686ZM5.45234 29.5975H5.49082C5.78909 29.5719 5.84682 29.4984 5.85003 29.4984C5.91705 29.4144 5.96024 29.314 5.97511 29.2076V29.1693C5.97652 29.1587 5.97652 29.1479 5.97511 29.1373L5.59987 24.7207C5.60042 24.5584 5.53709 24.4024 5.42347 24.2861C5.37841 24.2409 5.32421 24.2059 5.26448 24.1833C5.20475 24.1607 5.14086 24.1511 5.07709 24.1551H4.98088L5.45234 29.5975ZM11.5749 20.8921L15.9687 20.5087L17.4344 37.1779L20.7891 36.8839L21.0232 39.5716L13.2747 40.2459L11.5749 20.8921ZM21.9918 36.2703C21.918 35.463 22.0356 34.6497 22.335 33.8959C22.601 33.1944 22.9385 32.5219 23.342 31.8889C23.5152 31.6173 23.6884 31.3648 23.8487 31.1379C24.0091 30.911 24.1695 30.6841 24.317 30.4987L24.8141 29.8116C24.9937 29.5815 25.1348 29.3642 25.2888 29.1533C25.5516 28.7319 25.7667 28.2829 25.9302 27.8143C26.0898 27.3162 26.1412 26.79 26.081 26.2707L25.7282 22.2376C25.729 22.2124 25.7242 22.1873 25.7142 22.1641C25.7043 22.1409 25.6893 22.1202 25.6704 22.1034C25.6542 22.0882 25.635 22.0764 25.614 22.0687C25.5931 22.061 25.5708 22.0576 25.5486 22.0586H25.5165C25.408 22.0675 25.3044 22.1075 25.2182 22.1737C25.1926 22.1737 25.1733 22.2024 25.1797 22.2823L25.5614 26.4656L21.1675 26.8427L20.8468 23.2986C20.7282 21.9627 20.8981 21.0615 21.36 20.5502C21.7724 20.0871 22.3214 19.766 22.9283 19.633C23.066 19.605 23.2052 19.5847 23.3452 19.5723C23.4767 19.5464 23.6095 19.5272 23.7429 19.5148L26.9693 19.2335H27.258C27.8513 19.232 28.4367 19.3688 28.9674 19.633C29.6473 19.9686 30.045 20.889 30.1797 22.4517L30.5229 26.3474L30.2022 26.4241L30.5229 26.3857C30.591 27.0703 30.5726 27.7606 30.4684 28.4406C30.3722 29.2012 29.9007 30.1919 29.0219 31.4575C28.7429 31.8729 28.4671 32.2564 28.2105 32.5952C27.9539 32.9339 27.7647 33.2343 27.5691 33.5539C27.2978 34.0011 27.0721 34.4744 26.8956 34.9665C26.744 35.4242 26.6482 35.8985 26.6101 36.379L31.4209 35.9603L31.655 38.6448L22.2484 39.4661L21.9918 36.2703ZM31.174 19.1728L35.664 18.7797L37.2676 28.0252L37.3253 18.6359L42.4921 18.1853L44.1855 27.4244L44.1438 18.0415L48.6339 17.6484L47.9091 37.2163L42.4023 37.7084L40.7987 28.495L40.834 37.8459L35.3144 38.3252L31.174 19.1728ZM49.8398 17.543L56.3536 16.9773C56.4273 16.9773 56.4979 16.9773 56.5717 16.9773H56.716C57.337 16.9805 57.9407 17.1821 58.4382 17.5525C59.0155 17.9392 59.3587 18.7829 59.4742 20.1315L60.013 26.2579C60.013 26.4496 60.0418 26.651 60.045 26.8971C60.0688 27.1276 60.0688 27.36 60.045 27.5905C59.9559 28.1447 59.7087 28.6616 59.333 29.0798C58.9321 29.556 58.233 29.8308 57.1971 29.9203L55.369 30.0801L55.9334 36.5196L51.5396 36.9031L49.8398 17.543ZM55.1316 27.3892C55.385 27.3668 55.5005 27.3029 55.5261 27.255C55.6051 27.1223 55.6368 26.9669 55.6159 26.814L55.045 20.3105C55.0487 20.2991 55.0487 20.2868 55.045 20.2754V20.2402V20.2019C55.0267 20.0935 54.9777 19.9927 54.9039 19.911C54.8693 19.8816 54.8289 19.8598 54.7852 19.8471C54.7415 19.8344 54.6956 19.8312 54.6506 19.8375H54.5447H54.4838L55.1316 27.3892Z" fill="#836600"/>
<path d="M56.5747 17.2968H56.7127C57.2679 17.2996 57.8075 17.48 58.2521 17.8114C58.746 18.1309 59.0475 18.9235 59.1565 20.1571L59.6953 26.2866V26.309C59.7114 26.472 59.721 26.6669 59.7242 26.8906C59.7456 27.1032 59.7456 27.3173 59.7242 27.5298C59.648 28.0254 59.4309 28.489 59.0988 28.8656C58.7588 29.2683 58.1174 29.5112 57.1745 29.5943L55.0289 29.7796L55.5933 36.2192L51.8377 36.5388L50.1924 17.8178L56.0969 17.3032L56.3887 17.2777H56.5812M54.8429 27.7471L55.1636 27.7151C55.5068 27.6864 55.7248 27.5841 55.805 27.3956C55.9109 27.2083 55.9547 26.9924 55.9301 26.7788L55.3881 20.3776C55.3881 20.3488 55.3881 20.3169 55.3881 20.2881C55.3843 20.2427 55.3724 20.1983 55.3528 20.1571C55.3275 19.9874 55.2515 19.8293 55.1347 19.7033C55.0708 19.64 54.9937 19.5915 54.909 19.5611C54.8242 19.5307 54.7337 19.5193 54.644 19.5275H54.5093L54.1309 19.5595L54.8429 27.7471ZM48.313 18.0063L47.6107 36.9318L42.6556 37.3633L40.4426 24.7335L40.4843 37.5518L35.542 37.9833L31.5619 19.47L35.4105 19.1504L37.569 31.6715L37.6459 18.9555L42.2322 18.5336L44.5254 31.0452L44.4676 18.3387L48.3162 18.0191M27.2611 19.5435C27.8062 19.5413 28.3444 19.666 28.8326 19.9078C29.3971 20.189 29.7424 21.0413 29.8685 22.4644L30.1892 26.0981C30.1892 26.1428 30.1892 26.1876 30.1892 26.2323C30.1892 26.277 30.1892 26.3218 30.1892 26.3665V26.4113C30.2559 27.0702 30.2387 27.7349 30.1379 28.3895C30.0481 29.1011 29.5841 30.0598 28.746 31.2657C28.467 31.6779 28.1976 32.0518 27.9442 32.3906C27.6908 32.7294 27.4824 33.0521 27.2835 33.3685C27.0106 33.8404 26.788 34.3396 26.6196 34.8578C26.4245 35.4627 26.3165 36.0921 26.2989 36.7273L31.1738 36.3023L31.3534 38.3508L22.585 39.1178L22.3348 36.2415C22.2613 35.481 22.3713 34.714 22.6556 34.0045C22.914 33.3231 23.2417 32.6699 23.6337 32.055C23.8069 31.7834 23.9545 31.5373 24.1341 31.3136C24.3137 31.0899 24.4548 30.8662 24.5959 30.6745L25.0994 29.9778C25.2726 29.7541 25.4202 29.5304 25.5805 29.3099C25.8617 28.8672 26.0919 28.3945 26.2668 27.9005C26.4424 27.3607 26.5004 26.7898 26.4368 26.2259L26.0584 22.2152C26.0568 22.1441 26.0389 22.0743 26.0061 22.0112C25.9733 21.948 25.9265 21.8932 25.8692 21.8509C25.7794 21.7766 25.6649 21.7389 25.5484 21.7454H25.4875C25.3215 21.7615 25.1629 21.8222 25.0289 21.9212C24.9658 21.9642 24.9165 22.0245 24.8869 22.0948C24.8573 22.1651 24.8487 22.2424 24.8621 22.3174L25.1828 26.1716L21.4272 26.4912L21.1674 23.273C21.0648 22.0309 21.2102 21.1968 21.6036 20.7707C21.97 20.3577 22.4585 20.0713 22.9987 19.9525C23.1302 19.927 23.2649 19.9078 23.3996 19.895C23.5246 19.8698 23.651 19.8516 23.7781 19.8407L26.6838 19.585H26.8409H27.0205H27.2643M15.6767 20.8953L17.1424 37.5646L20.4971 37.2738L20.6767 39.3223L13.5664 39.9007L11.9211 21.1829L15.6767 20.8634M6.88903 21.6527C7.61386 21.6527 8.14839 21.8008 8.49263 22.0969C8.89277 22.4302 9.18326 22.8756 9.32649 23.3753C9.38676 23.5609 9.4255 23.7529 9.44195 23.9473C9.47403 24.1263 9.49648 24.2956 9.5093 24.4586L9.83002 28.2041C9.90058 29.019 9.6857 29.639 9.18859 30.0577C8.67843 30.4646 8.05178 30.6996 7.39898 30.7288L7.41501 30.9078H7.50481H7.61707C7.72611 30.9078 7.83515 30.9078 7.93778 30.9078C8.4741 30.9029 9.00245 31.0372 9.47082 31.2976C10.0385 31.5917 10.356 32.1349 10.433 32.9211L10.8146 37.2674C10.8263 37.4611 10.8263 37.6553 10.8146 37.849C10.8158 38.0782 10.79 38.3066 10.7377 38.5297C10.6019 38.9999 10.3337 39.4214 9.96472 39.7441C9.56383 40.1244 8.8839 40.3545 7.93137 40.4376L2.33804 40.8818L0.695959 22.1608L6.33098 21.6687C6.52662 21.6687 6.71264 21.6431 6.88903 21.6431M5.16357 29.9522L5.52277 29.9202C5.63125 29.9244 5.7394 29.9061 5.84042 29.8665C5.94143 29.8269 6.03312 29.7668 6.10969 29.6902C6.21139 29.5619 6.27574 29.4082 6.2957 29.2459C6.30362 29.2015 6.30362 29.1561 6.2957 29.1117V28.9775L5.92046 24.6919C5.9143 24.4502 5.81291 24.2206 5.63823 24.0528C5.56421 23.9798 5.47587 23.9228 5.37874 23.8854C5.28162 23.8481 5.17779 23.831 5.07377 23.8354H4.96793L4.63118 23.8642L5.16357 29.9362M5.91726 38.4914L6.27325 38.4626C6.38667 38.4581 6.49773 38.4289 6.59858 38.377C6.69943 38.3251 6.78763 38.2518 6.85696 38.1622C7.00745 37.958 7.07399 37.7042 7.04298 37.4528L6.61963 32.659C6.6196 32.5179 6.59121 32.3781 6.53613 32.248C6.48105 32.118 6.40039 32.0002 6.29891 31.9016C6.23307 31.8319 6.15356 31.7763 6.06529 31.7383C5.97703 31.7004 5.88189 31.6809 5.78576 31.6811H5.71841L5.31431 31.7163L5.91084 38.4882M56.5844 16.6449H56.3342L56.0969 16.6673H56.0424L50.1283 17.2074L49.4869 17.2649L49.5446 17.904L51.1867 36.625L51.2444 37.2642L51.8858 37.2067L55.6447 36.8871L56.2861 36.8296L56.2284 36.1904L55.7184 30.3868L57.229 30.2558C58.3547 30.1567 59.1245 29.8436 59.5831 29.2971C59.9933 28.8287 60.2604 28.2532 60.3528 27.6384C60.3767 27.3865 60.3767 27.133 60.3528 26.881C60.3528 26.6478 60.3368 26.4496 60.3207 26.277V26.2355L59.7819 20.1059C59.6569 18.6646 59.272 17.7411 58.6049 17.2904C58.055 16.8795 57.3872 16.6554 56.6998 16.6513H56.5619L56.5844 16.6449ZM48.993 17.2841L48.2681 17.3448L44.4195 17.6644L43.8326 17.7155V18.3035L43.8583 23.7747L42.8672 18.3834L42.7646 17.8082L42.1745 17.8945L37.5914 18.2939L37.0077 18.3451V18.9267L36.9756 24.4107L36.0456 19.0194L35.9461 18.4377L35.356 18.4889L31.5074 18.8085L30.7826 18.8724L30.9365 19.5818L34.9295 38.0951L35.0481 38.648L35.6126 38.5968L40.5549 38.1686L41.1418 38.1143V37.5295L41.1257 32.234L42.0398 37.4496L42.1392 38.028L42.7261 37.9769L47.6684 37.5454L48.2329 37.4975L48.2553 36.935L48.9577 18.0095L48.9865 17.2873L48.993 17.2841ZM27.2611 18.9043H26.9756H26.8538H26.7832H26.7383H26.6261L23.7332 19.1951C23.5943 19.2085 23.4562 19.2287 23.3194 19.2559C23.173 19.2693 23.0274 19.2907 22.8833 19.3198C22.2126 19.464 21.6051 19.8164 21.1482 20.3265C20.603 20.9177 20.4073 21.8956 20.526 23.3273L20.8114 26.5583L20.8659 27.1974L21.5074 27.1431L25.2662 26.8235L25.789 26.7788C25.7918 27.1044 25.7409 27.4283 25.6382 27.7375C25.4725 28.186 25.2574 28.6147 24.9968 29.0158C24.8685 29.214 24.7146 29.4249 24.551 29.6358L24.0539 30.3261C23.9256 30.4923 23.7684 30.7064 23.5921 30.9493C23.4157 31.1922 23.2489 31.4414 23.0693 31.7227C22.6553 32.3728 22.3093 33.0635 22.0366 33.784C21.7196 34.5825 21.5943 35.4438 21.671 36.2991L21.9243 39.1753L21.9788 39.8144L22.6203 39.7601L31.3855 38.9867L32.027 38.9292L31.9724 38.29L31.7928 36.2383L31.7383 35.5992L31.0969 35.6567L26.9917 36.0146C27.0342 35.6887 27.1083 35.3676 27.213 35.0559C27.3803 34.5838 27.5952 34.1298 27.8544 33.7009C28.0404 33.4037 28.2521 33.0905 28.4958 32.7677C28.7396 32.4449 29.0282 32.0423 29.3137 31.6204C30.2181 30.3165 30.7088 29.2811 30.8082 28.4598C30.9166 27.7576 30.9349 27.0445 30.8627 26.3378V26.2994V26.178V26.0278L30.542 22.4005C30.3945 20.7195 29.9391 19.7129 29.1533 19.323C28.5648 19.0359 27.9162 18.8924 27.2611 18.9043ZM16.2604 20.1603L15.619 20.2178L11.8666 20.5438L11.2251 20.6013L11.2829 21.2405L12.925 39.9455L12.9827 40.5846L13.6241 40.5271L20.7377 39.9071L21.3791 39.8528L21.3214 39.2136L21.1418 37.1619L21.0872 36.5228L20.4458 36.5771L17.7293 36.8136L16.3182 20.7994L16.2604 20.1603ZM6.88903 21.004C6.6966 21.004 6.48814 21.004 6.27646 21.0327L0.641437 21.5249L0 21.5792L0.0545222 22.2184L1.69981 40.9362L1.75754 41.5753L2.39897 41.521L7.9891 41.032C9.10199 40.9362 9.89417 40.6517 10.4105 40.166C10.8689 39.7622 11.2026 39.2368 11.3727 38.6512V38.6256C11.4335 38.3614 11.4647 38.0913 11.4657 37.8203C11.4786 37.6074 11.4786 37.394 11.4657 37.1811L11.084 32.8348C10.9718 31.5757 10.3239 30.9813 9.80116 30.7032L9.57024 30.585L9.61514 30.5498C10.2919 29.9906 10.5773 29.182 10.4939 28.1466L10.1732 24.4043C10.1572 24.2317 10.1347 24.0496 10.1026 23.8642C10.0791 23.6362 10.0318 23.4113 9.96152 23.1931C9.78462 22.5777 9.42723 22.0291 8.93522 21.6176C8.47018 21.2149 7.8095 21.0168 6.9179 21.0168L6.88903 21.004Z" fill="black"/>
<path d="M1.94357 21.7294L7.89932 21.2117C8.10458 21.1925 8.30342 21.1829 8.48623 21.1829C9.13277 21.1356 9.77481 21.3216 10.2951 21.707C10.7419 22.0808 11.0659 22.5795 11.2252 23.1388C11.2916 23.3464 11.3347 23.5608 11.3535 23.7779C11.3823 23.9377 11.408 24.1199 11.4208 24.2892L11.7415 28.0315C11.8217 28.9551 11.5651 29.671 10.9782 30.1599C10.806 30.2996 10.6201 30.4216 10.4234 30.5242C10.7003 30.5958 10.9667 30.7032 11.2155 30.8438C11.8762 31.1858 12.2547 31.8026 12.3316 32.7166L12.7229 37.0692C12.7384 37.282 12.7384 37.4956 12.7229 37.7084C12.725 37.9546 12.6981 38.2003 12.6427 38.4402C12.4912 38.972 12.1908 39.4497 11.7768 39.8176C11.315 40.2523 10.5869 40.5079 9.53177 40.5974L3.62093 41.1119L1.94357 21.7294ZM7.80631 38.028H7.84479C7.91319 38.0276 7.98058 38.0116 8.04176 37.9811C8.10293 37.9506 8.15625 37.9065 8.19758 37.8522C8.30134 37.7116 8.34515 37.5359 8.31946 37.3633L7.89932 32.5696C7.89879 32.3713 7.82713 32.1797 7.69726 32.0295C7.65975 31.9849 7.61321 31.9488 7.5607 31.9235C7.50819 31.8982 7.4509 31.8842 7.39258 31.8825H7.35089H7.2675L7.80631 38.028ZM7.05583 29.46H7.09431C7.39258 29.4345 7.45352 29.3578 7.45352 29.3578C7.52042 29.2749 7.56363 29.1755 7.5786 29.0702V29.0286C7.58163 29.0182 7.58163 29.0071 7.5786 28.9967L7.19694 24.5801C7.19403 24.4232 7.1309 24.2734 7.02055 24.1614C6.97587 24.1158 6.92173 24.0804 6.8619 24.0577C6.80207 24.0351 6.738 24.0258 6.67417 24.0304H6.57796L7.05583 29.46ZM13.1719 20.7515L17.5658 20.368L19.0315 37.0373L22.3862 36.7497L22.6235 39.4341L14.8717 40.1116L13.1719 20.7515ZM23.5889 36.1297C23.5168 35.3224 23.6343 34.5094 23.932 33.7552C24.2001 33.0556 24.5375 32.3844 24.9391 31.7514C25.1155 31.4766 25.2855 31.2241 25.4458 31.0004C25.6062 30.7767 25.7665 30.5466 25.9173 30.3613L26.4112 29.6742C26.5908 29.4473 26.7319 29.2268 26.8859 29.0126C27.1485 28.5923 27.3636 28.1443 27.5273 27.6768C27.6865 27.1787 27.7379 26.6526 27.678 26.1332L27.3252 22.1001C27.3252 22.0011 27.2835 21.9755 27.2675 21.9659C27.2512 21.9507 27.2321 21.9389 27.2111 21.9312C27.1902 21.9235 27.1679 21.9201 27.1456 21.9212H27.1136C27.0054 21.9316 26.9023 21.9714 26.8153 22.0362C26.7896 22.0362 26.7704 22.065 26.78 22.1481L27.1456 26.3218L22.771 26.7085L22.4503 23.1611C22.3316 21.8221 22.5016 20.9241 22.9635 20.4095C23.3759 19.9464 23.9249 19.6253 24.5318 19.4923C24.6729 19.4668 24.814 19.4444 24.9519 19.4316C25.0898 19.4188 25.2245 19.3869 25.3464 19.3741L28.5889 19.0929H28.8615C29.4548 19.0914 30.0402 19.2282 30.5709 19.4923C31.2508 19.8279 31.6485 20.7515 31.7864 22.311L32.1264 26.2035L31.8057 26.277L32.1264 26.2419C32.198 26.9283 32.1807 27.6211 32.0751 28.3032C31.9789 29.067 31.5074 30.0577 30.6286 31.3232C30.3464 31.7387 30.0738 32.1221 29.8172 32.4609C29.5606 32.7997 29.3714 33.1001 29.1758 33.4196C28.9045 33.8669 28.6788 34.3401 28.5023 34.8322C28.3533 35.2881 28.2596 35.7602 28.2232 36.2383L33.034 35.8165L33.2682 38.5042L23.8615 39.3223L23.5889 36.1297ZM32.771 19.0417L37.2611 18.6487L38.8647 27.8973L38.9224 18.5048L44.0892 18.0542L45.7826 27.2933L45.7409 17.9104L50.2309 17.5173L49.5029 37.0852L43.9834 37.5678L42.3798 28.3543L42.4118 37.7052L36.8923 38.1878L32.771 19.0417ZM51.4369 17.4151L57.925 16.8494C58.0073 16.8453 58.0897 16.8453 58.1719 16.8494H58.3131C58.9347 16.8524 59.5387 17.0553 60.0353 17.4279C60.6126 17.8114 60.9558 18.6582 61.0712 20.0037L61.61 26.1332C61.6293 26.325 61.6389 26.5231 61.6421 26.7724C61.6659 27.0029 61.6659 27.2353 61.6421 27.4659C61.5537 28.0162 61.3089 28.5297 60.9365 28.9455C60.5356 29.4217 59.8365 29.6965 58.8005 29.7892L56.9725 29.9458L57.5369 36.3885L53.1431 36.772L51.4369 17.4151ZM56.7319 27.2613C56.9853 27.2422 57.1007 27.1782 57.1264 27.1303C57.2054 26.9964 57.237 26.84 57.2162 26.6861L56.6453 20.1794V20.1443V20.074C56.6269 19.9666 56.5779 19.8668 56.5042 19.7864C56.4696 19.7569 56.4291 19.7351 56.3855 19.7224C56.3418 19.7098 56.2959 19.7065 56.2508 19.7129H56.1258H56.0648L56.7319 27.2613Z" fill="#FCF521"/>
<path d="M58.1719 17.1562H58.3098C58.8657 17.158 59.406 17.3397 59.8493 17.6739C60.3432 18.0041 60.6447 18.786 60.7537 20.0196L61.2925 26.1459V26.1683C61.2925 26.3345 61.3182 26.5262 61.3214 26.75C61.3428 26.9625 61.3428 27.1766 61.3214 27.3891C61.2458 27.885 61.0287 28.3487 60.696 28.725C60.356 29.1276 59.7146 29.3705 58.7717 29.4536L56.6261 29.6422L57.1841 36.1104L53.4285 36.43L51.7832 17.7122L57.6876 17.1977L57.9795 17.1721H58.1719M56.4465 27.6064L56.7672 27.5777C57.1104 27.5489 57.3284 27.4466 57.4086 27.2581C57.5154 27.0711 57.5592 26.8549 57.5337 26.6413L56.9692 20.2209C56.9708 20.1922 56.9708 20.1634 56.9692 20.1346C56.9651 20.0883 56.9531 20.0429 56.934 20.0004C56.9081 19.8319 56.8321 19.6749 56.7159 19.5498C56.6524 19.486 56.5754 19.4371 56.4905 19.4067C56.4056 19.3763 56.3149 19.3651 56.2252 19.374H56.0905L55.712 19.4092L56.4465 27.6064ZM49.9102 17.8688L49.2079 36.7943L44.2592 37.2226L42.0526 24.6056L42.0943 37.4239L37.152 37.8554L33.1591 19.3293L37.0077 18.9937L39.1662 31.5149L39.2431 18.7988L43.8294 18.3993L46.1225 30.9077L46.0648 18.214L49.9134 17.8944M28.8647 19.4028C29.4092 19.4007 29.9465 19.5266 30.433 19.7703C30.9975 20.0494 31.3428 20.9016 31.4689 22.327L31.7896 25.9574C31.7896 26.0021 31.7896 26.0469 31.7896 26.0916C31.7896 26.1364 31.7896 26.1811 31.7896 26.2258V26.2706C31.8563 26.9306 31.8391 27.5963 31.7383 28.252C31.6507 28.9614 31.1867 29.9202 30.3464 31.1282C30.0674 31.5405 29.798 31.9176 29.5446 32.2531C29.2912 32.5887 29.0828 32.9146 28.9032 33.231C28.6166 33.6972 28.3802 34.192 28.1976 34.7075C28.0032 35.3126 27.8952 35.9419 27.8769 36.577L32.7518 36.152L32.9314 38.2037L24.1597 38.9867L23.9096 36.1104C23.8381 35.35 23.948 34.5835 24.2303 33.8734C24.4843 33.1929 24.8066 32.5398 25.1925 31.924C25.3656 31.6555 25.5324 31.4094 25.6928 31.1857C25.866 30.946 26.0135 30.7383 26.1546 30.5466L26.6581 29.8531C26.8356 29.64 26.996 29.4163 27.1392 29.182C27.4246 28.749 27.6612 28.286 27.8448 27.8014C28.0176 27.2599 28.0744 26.6883 28.0116 26.1236L27.6588 22.0905C27.6559 22.0193 27.6371 21.9497 27.6038 21.8867C27.5705 21.8237 27.5236 21.7688 27.4663 21.7262C27.3766 21.6519 27.2621 21.6142 27.1456 21.6207H27.0847C26.9186 21.6342 26.7597 21.694 26.6261 21.7933C26.563 21.8363 26.5137 21.8966 26.4841 21.9669C26.4545 22.0372 26.4459 22.1145 26.4593 22.1895L26.78 26.0469L23.0244 26.3665L22.771 23.1323C22.6652 21.8987 22.8095 21.0646 23.2072 20.6236C23.5729 20.2142 24.0588 19.9301 24.5959 19.8119C24.7274 19.7863 24.8621 19.7671 24.9968 19.7543C25.1219 19.7293 25.2482 19.7112 25.3753 19.7L28.281 19.4475L28.4381 19.4316H28.6177H28.8615M17.2771 20.7418L18.7396 37.3888L22.0943 37.0948L22.2739 39.1465L15.1636 39.7664L13.5183 21.0423L17.2771 20.7227M8.48623 21.5024C9.05683 21.4551 9.62562 21.6126 10.0898 21.9467C10.49 22.28 10.7805 22.7253 10.9237 23.225C10.9834 23.412 11.0232 23.6049 11.0424 23.8002C11.0712 23.976 11.0937 24.1454 11.1097 24.3116L11.4304 28.0538C11.501 28.872 11.2872 29.4898 10.789 29.9074C10.2747 30.3196 9.63981 30.554 8.98013 30.5753L8.99617 30.7543H9.08597H9.19822C9.30727 30.7543 9.41631 30.7543 9.51894 30.7543C10.0547 30.749 10.5824 30.8846 11.0488 31.1474C11.6175 31.4414 11.9382 31.9825 12.0109 32.7708L12.4054 37.0692C12.417 37.264 12.417 37.4593 12.4054 37.654C12.4063 37.8831 12.3804 38.1116 12.3284 38.3347C12.1912 38.8033 11.9231 39.2233 11.5555 39.5459C11.161 39.9454 10.4811 40.1691 9.52856 40.265L3.93523 40.7539L2.29315 22.0202L7.92818 21.5312C8.12274 21.512 8.30876 21.5024 8.48623 21.5024ZM6.76076 29.8115L7.11997 29.7796C7.2273 29.7815 7.3339 29.7616 7.43319 29.7209C7.53248 29.6802 7.62235 29.6197 7.69726 29.5431C7.799 29.4145 7.86433 29.2611 7.88648 29.0989C7.89284 29.0543 7.89284 29.0092 7.88648 28.9646V28.8304L7.51766 24.5512C7.51199 24.3101 7.41185 24.0806 7.23863 23.9121C7.16411 23.84 7.07561 23.7838 6.97856 23.747C6.8815 23.7102 6.77792 23.6935 6.67417 23.698H6.56512L6.2444 23.7267L6.7768 29.7987M7.53048 38.3571L7.88648 38.3251C7.99951 38.3204 8.11018 38.2914 8.21092 38.2401C8.31167 38.1888 8.4001 38.1164 8.47019 38.0279C8.62059 37.8224 8.68707 37.5677 8.65621 37.3153L8.23607 32.5216C8.23557 32.38 8.20698 32.2399 8.15194 32.1093C8.0969 31.9788 8.01649 31.8604 7.91535 31.761C7.85 31.6914 7.77103 31.636 7.68331 31.598C7.5956 31.5601 7.50102 31.5405 7.4054 31.5405H7.33485L6.93074 31.5756L7.52728 38.3507M58.2008 16.5042C58.1175 16.4994 58.034 16.4994 57.9506 16.5042H57.832H57.662L51.7576 17.0219L51.1161 17.0763L51.1739 17.7154L52.8159 36.4364L52.8737 37.0756L53.5151 37.0213L57.2739 36.7017L57.9154 36.6473L57.8576 36.0082L57.3509 30.2046L58.8583 30.0736C59.984 29.9777 60.7537 29.6645 61.2123 29.1148C61.623 28.6468 61.8901 28.0711 61.9821 27.4562C62.006 27.2054 62.006 26.9529 61.9821 26.702C61.9821 26.4655 61.9821 26.2674 61.9532 26.098V26.0788L61.4144 19.9461C61.2893 18.5048 60.9045 17.5844 60.2374 17.1338C59.6875 16.7228 59.0196 16.4988 58.3323 16.4946H58.1944L58.2008 16.5042ZM50.6094 17.1434L49.8846 17.2073L46.0359 17.5269L45.4458 17.578V18.214L45.4715 23.682L44.4805 18.2907L44.3778 17.7186L43.7941 17.7698L39.2111 18.1692L38.6274 18.2204V18.802L38.5696 24.286L37.6395 18.8947L37.5401 18.3162L36.95 18.3674L33.1014 18.6869L32.3765 18.7509L32.5305 19.4571L36.5234 37.9736L36.6421 38.5233L37.2066 38.4753L42.1488 38.0439L42.7358 37.9928V37.4048L42.7197 32.1125L43.6338 37.328L43.7332 37.9065L44.3201 37.8554L49.2624 37.4239L49.8268 37.3728L49.8493 36.8103L50.5517 17.8944L50.5805 17.1721L50.6094 17.1434ZM28.8647 18.7636H28.5792H28.3868L28.2297 18.7796L25.3207 19.0321C25.1819 19.0443 25.0439 19.0635 24.907 19.0896C24.7627 19.0896 24.6152 19.1248 24.474 19.1535C23.8024 19.2994 23.194 19.6528 22.7357 20.1634C22.2001 20.7706 22.0045 21.7581 22.1296 23.1866L22.415 26.4208L22.4696 27.0599L23.111 27.0024L26.8698 26.6828L27.3926 26.6381C27.3952 26.9637 27.3442 27.2876 27.2418 27.5968C27.0763 28.0454 26.8612 28.4741 26.6004 28.8752C26.4689 29.0733 26.3182 29.2874 26.1546 29.4951L25.6575 30.1854C25.5292 30.3548 25.3721 30.5657 25.1957 30.8246C25.0193 31.0835 24.8461 31.3167 24.6665 31.582C24.2531 32.2325 23.9071 32.9231 23.6338 33.6433C23.317 34.4418 23.1918 35.3031 23.2681 36.1584L23.5215 39.0346L23.5792 39.6738L24.2207 39.6162L32.9859 38.8524L33.6273 38.7981L33.5696 38.159L33.3868 36.1104L33.3323 35.4713L32.6909 35.5256L28.5857 35.8835C28.6273 35.5571 28.7025 35.2359 28.8102 34.9248C28.976 34.4511 29.191 33.9959 29.4516 33.5666C29.6376 33.2726 29.8493 32.9562 30.093 32.6366C30.3368 32.317 30.6254 31.908 30.9109 31.4893C31.8153 30.1854 32.306 29.15 32.4054 28.3255C32.5139 27.6233 32.5322 26.9102 32.4599 26.2035V26.1683V26.0437V25.8967L32.1392 22.2662C31.9917 20.5884 31.5363 19.5818 30.7505 19.1919C30.1648 18.9022 29.5185 18.7554 28.8647 18.7636ZM17.8576 20.0228L17.2162 20.0771L13.4702 20.4063L12.8288 20.451L12.8865 21.0902L14.5286 39.8112L14.5863 40.4503L15.2277 40.396L22.3413 39.776L22.9827 39.7185L22.925 39.0793L22.7454 37.0308L22.6908 36.3917L22.0494 36.4492L19.3329 36.6857L17.9154 20.6588L17.8576 20.0196V20.0228ZM8.48623 20.8633C8.29379 20.8633 8.08533 20.8633 7.87365 20.892L2.24504 21.3842L1.60361 21.4417L1.66134 22.0809L3.30342 40.7987L3.36114 41.4378L4.00258 41.3803L9.58308 40.9042C10.696 40.8051 11.4882 40.5238 12.0045 40.0381C12.4618 39.632 12.7952 39.106 12.9667 38.5201V38.4977C13.0275 38.2324 13.0586 37.9613 13.0597 37.6892C13.0726 37.4763 13.0726 37.2629 13.0597 37.05L12.678 32.7037C12.569 31.4478 11.9179 30.8534 11.3951 30.5753C11.3182 30.5338 11.2412 30.4922 11.1642 30.4571L11.2091 30.4187C11.8858 29.8595 12.1713 29.0509 12.0879 28.0187L11.7672 24.2732C11.7672 24.1006 11.7287 23.9217 11.6966 23.7363C11.6735 23.4991 11.6229 23.2653 11.5459 23.0396C11.3693 22.425 11.0118 21.8773 10.5196 21.4673C10.0545 21.0614 9.39386 20.8633 8.50226 20.8633H8.48623Z" fill="black"/>
</svg>
