<svg width="195" height="56" viewBox="0 0 195 56" fill="none" xmlns="http://www.w3.org/2000/svg">
<path d="M6.35913 13.3245C12.4552 2.95731 25.8087 -2.06968 37.6447 1.41054C37.9142 1.49044 38.1869 1.57672 38.4564 1.66621C40.625 2.39152 42.7052 3.35626 44.6583 4.54243C45.1492 4.83644 45.6209 5.12726 45.9706 5.37014C58.6696 14.1266 62.1379 31.8953 52.3714 44.7008C43.3525 56.5253 26.9092 59.1459 14.5342 50.8975C4.49823 44.1863 0.551843 31.8825 3.30469 20.1699C3.59024 18.9587 4.93458 15.7533 6.35913 13.3245ZM43.3974 46.4362C51.6175 41.2398 56.5168 28.5397 50.2731 17.1946C47.3556 11.8469 42.4249 7.8726 36.5655 6.14595C30.7062 4.4193 24.3983 5.08172 19.0293 7.9875C18.6635 8.18564 18.301 8.39336 17.948 8.62666C6.59335 15.5711 4.90891 29.214 9.30448 37.4464C9.44565 37.2674 9.58362 37.1076 9.69591 36.9382C15.685 28.4396 21.6848 19.9462 27.6953 11.4581C28.4012 10.4217 29.2095 9.45813 30.108 8.58192C32.97 5.92301 37.6864 6.86897 39.1559 10.4834C39.6275 11.725 39.9265 13.0249 40.0446 14.3471C40.9141 22.3974 41.7258 30.454 42.5568 38.5106C42.8327 41.1471 43.1119 43.7805 43.3974 46.4362ZM36.2554 16.1624C36.2392 15.2052 36.0691 14.2568 35.7517 13.3532C35.11 11.5189 33.5058 11.1162 32.1037 12.4776C31.2878 13.2809 30.589 14.1942 30.0278 15.1908C24.705 24.5194 19.4111 33.8735 14.0851 43.1924C13.7225 43.8316 13.8508 44.1512 14.3321 44.5794C17.8568 47.8529 22.3202 49.9479 27.0985 50.5715C30.0322 50.9771 33.0175 50.8023 35.8832 50.057C36.1014 50.0013 36.2945 49.8744 36.4318 49.6966C36.569 49.5187 36.6425 49.3002 36.6404 49.0759C36.5955 45.0588 36.3902 26.1237 36.2554 16.1624Z" fill="#5C1A00"/>
<path d="M30.2364 55.998C24.5776 55.9883 19.0499 54.3006 14.3578 51.15C4.55597 44.605 0.0962293 32.413 2.99346 20.0836C3.3143 18.7701 4.69072 15.5328 6.08319 13.1615C9.05421 8.09617 13.9022 4.08544 19.7287 1.87715C25.4862 -0.325782 31.808 -0.597318 37.7345 1.10376C38.0104 1.18685 38.2864 1.27314 38.5591 1.36582C40.7486 2.08953 42.8503 3.05424 44.8252 4.24204C45.4187 4.59997 45.839 4.86522 46.1503 5.08253C49.2812 7.24929 51.9416 10.0224 53.9724 13.2362C56.0032 16.45 57.3629 20.0386 57.9702 23.7875C58.5702 27.4803 58.4059 31.2563 57.4872 34.8835C56.5686 38.5107 54.915 41.9125 52.6281 44.8798C50.0157 48.3341 46.633 51.1362 42.747 53.0652C38.861 54.9941 34.5782 55.9971 30.2364 55.9948V55.998ZM30.0278 0.637177C20.5918 0.637177 11.3322 5.48521 6.63825 13.4843C5.18162 15.961 3.87899 19.1345 3.6191 20.2306C0.782836 32.2948 5.13349 44.2247 14.7139 50.6195C27.0889 58.8678 43.1696 56.2345 52.1148 44.4963C54.3484 41.5989 55.9637 38.2771 56.8614 34.7351C57.7591 31.1931 57.9202 27.5057 57.3349 23.8994C56.7407 20.236 55.4117 16.7293 53.4272 13.5887C51.4428 10.448 48.8435 7.7377 45.7845 5.61943C45.4829 5.4117 45.0722 5.15284 44.5011 4.8013C42.5668 3.63396 40.5083 2.6843 38.3634 1.96983C38.0939 1.88034 37.8243 1.79725 37.558 1.71736C35.1131 0.999004 32.5769 0.635208 30.0278 0.637177ZM30.2107 51.0957C29.1556 51.0963 28.1017 51.0237 27.0568 50.8783C22.2155 50.2377 17.6931 48.1161 14.1139 44.8063C13.5877 44.3397 13.3311 43.8476 13.7931 43.0263C16.3598 38.5202 18.9266 34.0098 21.4934 29.4952C24.1884 24.7495 26.9734 19.8439 29.7294 15.0247C30.3038 14.0011 31.0211 13.0639 31.8598 12.2411C32.6202 11.5125 33.4641 11.2153 34.2533 11.3974C35.0426 11.5796 35.6779 12.2379 36.034 13.235C36.3716 14.1743 36.5547 15.1617 36.5763 16.1592C36.7271 26.6797 36.942 46.8133 36.9677 49.0759C36.9711 49.3718 36.8746 49.6603 36.6937 49.8951C36.5127 50.1298 36.2578 50.2971 35.9699 50.3702C34.0896 50.8594 32.1541 51.1065 30.2107 51.1052V51.0957ZM33.8074 11.995C33.2383 12.0356 32.706 12.2904 32.3186 12.7077C31.5255 13.4858 30.8461 14.3712 30.3005 15.3379C27.5445 20.1699 24.7596 25.0755 22.0645 29.818C19.4977 34.3326 16.9309 38.844 14.3642 43.3522C14.0883 43.8316 14.1588 43.9914 14.5439 44.3397C18.0258 47.564 22.4275 49.6311 27.1402 50.2552C30.0329 50.6591 32.9773 50.4875 35.803 49.7502C35.9517 49.7124 36.0833 49.626 36.1769 49.505C36.2706 49.3839 36.3208 49.2351 36.3196 49.0823C36.2939 46.8197 36.0789 26.6893 35.9282 16.1656C35.9124 15.2423 35.7488 14.3275 35.4437 13.4555C35.1613 12.6694 34.6897 12.1772 34.1186 12.027C34.0163 12.0052 33.912 11.9945 33.8074 11.995ZM43.1311 46.9763L42.2327 38.5426C42.0189 36.3992 41.7985 34.2549 41.5718 32.1094C40.975 26.2963 40.3558 20.285 39.7173 14.3759C39.6021 13.0814 39.3107 11.8084 38.851 10.5921C38.5357 9.81491 38.0334 9.12685 37.3883 8.58852C36.7432 8.05018 35.9751 7.67807 35.1517 7.50495C34.3032 7.31884 33.422 7.34055 32.5838 7.56821C31.7455 7.79587 30.9753 8.22268 30.339 8.81203C29.4559 9.66921 28.6625 10.6136 27.9712 11.6307C21.9543 20.1294 15.946 28.6271 9.94616 37.1236C9.85632 37.2578 9.75044 37.3889 9.62531 37.5263L9.24351 38.028L9.01571 37.5966C4.40196 28.9392 6.44895 15.2899 17.778 8.32947C18.1373 8.10896 18.5063 7.89803 18.8753 7.69031C24.3218 4.75219 30.7161 4.08596 36.6552 5.83779C42.5943 7.58961 47.5933 11.6164 50.5555 17.0348C56.9242 28.6036 51.887 41.4411 43.5675 46.7014L43.1311 46.9763ZM33.987 6.74435C34.4252 6.74479 34.862 6.79301 35.2897 6.88816C36.2191 7.07956 37.0865 7.49728 37.8143 8.10402C38.5421 8.71075 39.1078 9.48761 39.4606 10.3652C39.9433 11.6365 40.2488 12.9677 40.3686 14.3216C41.0103 20.2242 41.6264 26.2387 42.2231 32.0519C42.437 34.1973 42.6573 36.3407 42.8841 38.4818L43.6733 45.8833C51.4859 40.6102 56.0836 28.3895 50.0068 17.348C47.1267 12.0802 42.2667 8.16503 36.4926 6.46122C30.7186 4.7574 24.5018 5.40398 19.2057 8.25916C18.8464 8.4541 18.487 8.66183 18.1373 8.87595C7.28315 15.5232 5.1752 28.4406 9.3558 36.8584L9.41997 36.7625C15.4262 28.2553 21.4292 19.7598 27.429 11.276C28.1421 10.2222 28.9625 9.24441 29.877 8.35823C30.9923 7.32109 32.4612 6.74428 33.987 6.74435Z" fill="black"/>
<path d="M7.96336 13.3245C14.0594 2.95731 27.413 -2.06968 39.2489 1.41054C39.5184 1.49044 39.7911 1.57672 40.0606 1.66621C42.2292 2.39152 44.3094 3.35626 46.2626 4.54243C46.7535 4.83644 47.2251 5.12726 47.5716 5.37014C60.2739 14.1266 63.7422 31.8953 53.9885 44.7008C44.9696 56.5253 28.5263 59.1459 16.1513 50.8975C6.1153 44.1863 2.16891 31.8825 4.92175 20.1699C5.19447 18.9587 6.53881 15.7533 7.96336 13.3245ZM45.0017 46.4362C53.2217 41.2398 58.121 28.5397 51.8774 17.1946C48.9598 11.8469 44.0291 7.8726 38.1698 6.14595C32.3105 4.4193 26.0025 5.08172 20.6335 7.9875C20.2677 8.18564 19.9052 8.39336 19.5491 8.62666C8.19758 15.5711 6.51314 29.214 10.9087 37.4464C11.0499 37.2674 11.1878 37.1076 11.3001 36.9382C17.2892 28.4396 23.289 19.9462 29.2995 11.4581C30.0055 10.4217 30.8138 9.45813 31.7123 8.58192C34.5742 5.92301 39.2906 6.86897 40.7601 10.4834C41.2322 11.7247 41.5301 13.0248 41.6456 14.3471C42.5183 22.3974 43.3301 30.454 44.161 38.5106C44.437 41.1471 44.7161 43.7805 45.0017 46.4362ZM37.8597 16.1624C37.8434 15.2052 37.6733 14.2568 37.3559 13.3532C36.7142 11.5189 35.11 11.1162 33.7079 12.4776C32.8911 13.28 32.1922 14.1935 31.6321 15.1908C26.3092 24.5194 21.0153 33.8735 15.6893 43.1924C15.3267 43.8316 15.4551 44.1512 15.9331 44.5794C19.4595 47.8524 23.9237 49.9473 28.7028 50.5715C31.6365 50.9771 34.6217 50.8023 37.4875 50.057C37.7056 50.0013 37.8987 49.8744 38.036 49.6966C38.1732 49.5187 38.2467 49.3002 38.2447 49.0759C38.1997 45.0588 37.9944 26.1237 37.8597 16.1624Z" fill="#BD3501"/>
<path d="M31.8406 55.9979C26.1819 55.9883 20.6542 54.3005 15.962 51.1499C6.16022 44.6049 1.70048 32.4129 4.5977 20.0835C4.91855 18.7701 6.29497 15.5327 7.68744 13.1614C10.6585 8.0961 15.5064 4.08537 21.333 1.87707C27.0904 -0.326085 33.4123 -0.597625 39.3388 1.10369C39.6147 1.18678 39.8906 1.27307 40.1633 1.36575C42.3529 2.08946 44.4546 3.05416 46.4294 4.24197C47.0262 4.60309 47.4465 4.88113 47.7545 5.08246C50.8854 7.24922 53.5458 10.0223 55.5766 13.2361C57.6075 16.45 58.9672 20.0385 59.5744 23.7875C60.1745 27.4803 60.0101 31.2562 59.0915 34.8834C58.1728 38.5106 56.5192 41.9124 54.2324 44.8798C49.8886 50.62 43.4898 54.4706 36.3677 55.6304C34.871 55.8734 33.3571 55.9963 31.8406 55.9979ZM31.6321 0.637104C22.196 0.637104 12.9332 5.48513 8.2425 13.4842C6.78586 15.961 5.48323 19.1344 5.22335 20.2306C2.38708 32.2947 6.73774 44.2246 16.3182 50.6194C28.6931 58.8678 44.7739 56.2344 53.719 44.4963C55.9527 41.5988 57.568 38.277 58.4657 34.735C59.3634 31.193 59.5245 27.5056 58.9391 23.8993C58.3453 20.2358 57.0164 16.729 55.0319 13.5883C53.0475 10.4476 50.448 7.73736 47.3887 5.61936C47.0936 5.41483 46.6829 5.15597 46.1054 4.80123C44.171 3.63388 42.1125 2.68423 39.9676 1.96975C39.6981 1.88027 39.4286 1.79718 39.1623 1.71728C36.7173 0.998932 34.1812 0.635136 31.6321 0.637104ZM31.8149 51.0956C30.7588 51.0963 29.7039 51.0237 28.6578 50.8783C23.8176 50.237 19.2965 48.1155 15.7182 44.8063C15.192 44.3397 14.9353 43.8475 15.3973 43.0262C17.9769 38.5073 20.5501 33.9853 23.1169 29.46C25.8055 24.727 28.5712 19.8311 31.3337 15.0246C31.9081 14.0011 32.6254 13.0639 33.4641 12.2411C34.2213 11.5124 35.0683 11.2152 35.8576 11.3974C36.6469 11.5795 37.2789 12.2379 37.6383 13.2349C37.9759 14.1742 38.159 15.1617 38.1805 16.1591C38.3153 25.7465 38.5014 43.774 38.5719 49.0758C38.5754 49.3718 38.4789 49.6603 38.2979 49.895C38.1169 50.1297 37.862 50.2971 37.5741 50.3701C35.6938 50.8594 33.7583 51.1064 31.8149 51.1052V51.0956ZM35.4116 11.995C34.8425 12.0356 34.3102 12.2904 33.9229 12.7076C33.1297 13.4858 32.4503 14.3712 31.9048 15.3378C29.1551 20.1315 26.3766 25.0402 23.688 29.7732C21.1212 34.2985 18.548 38.8216 15.9684 43.3426C15.6925 43.8219 15.7631 43.9817 16.1481 44.3301C19.6301 47.5544 24.0317 49.6214 28.7445 50.2455C31.6372 50.6494 34.5816 50.4778 37.4073 49.7406C37.5559 49.7027 37.6875 49.6164 37.7812 49.4953C37.8748 49.3743 37.925 49.2255 37.9238 49.0726C37.8661 43.7708 37.6672 25.7433 37.5324 16.1559C37.5166 15.2327 37.3531 14.3178 37.0479 13.4459C36.7656 12.6597 36.2939 12.1676 35.7228 12.0173C35.6202 11.9987 35.5159 11.9912 35.4116 11.995ZM44.7354 46.9762L43.837 38.5425L43.1953 32.1796C42.5953 26.3441 41.9761 20.3073 41.3344 14.3758C41.2192 13.0813 40.9278 11.8083 40.4681 10.592C40.1528 9.81483 39.6505 9.12678 39.0054 8.58844C38.3603 8.05011 37.5922 7.678 36.7688 7.50488C35.9149 7.31497 35.0274 7.33533 34.1832 7.56421C33.339 7.79309 32.5635 8.22357 31.924 8.81835C31.0428 9.67642 30.2506 10.6208 29.5594 11.637C23.5532 20.1315 17.5502 28.627 11.5504 37.1236C11.4606 37.2578 11.3547 37.3888 11.2296 37.5262L10.8478 38.028L10.62 37.5997C6.00621 28.9423 8.0532 15.293 19.3822 8.33259C19.7416 8.11208 20.1105 7.90116 20.4795 7.69343C25.9261 4.75531 32.3203 4.08909 38.2594 5.84091C44.1986 7.59274 49.1975 11.6196 52.1597 17.0379C58.5285 28.6067 53.4912 41.4443 45.1717 46.7046L44.7354 46.9762ZM35.5881 6.74428C36.0273 6.74454 36.4652 6.79276 36.8939 6.88809C37.8234 7.07948 38.6907 7.49721 39.4186 8.10394C40.1464 8.71068 40.712 9.48754 41.0649 10.3651C41.5483 11.6362 41.8538 12.9675 41.9729 14.3215C42.6146 20.2465 43.2338 26.2834 43.8338 32.1221C44.0477 34.242 44.2616 36.3619 44.4755 38.4818L45.2648 45.8832C53.0773 40.6102 57.675 28.3894 51.5982 17.3479C48.7218 12.0763 43.8618 8.15781 38.0863 6.45355C32.3108 4.74929 26.0922 5.39871 20.7971 8.25909C20.441 8.45403 20.0817 8.66176 19.7319 8.87588C8.8874 15.5231 6.77945 28.4406 10.9601 36.8583L11.0242 36.7624C17.0304 28.2552 23.0334 19.7597 29.0332 11.2759C29.7464 10.2221 30.5667 9.24434 31.4813 8.35816C32.5957 7.32177 34.0634 6.74502 35.5881 6.74428Z" fill="black"/>
<path d="M0.346497 21.8701L6.30458 21.3523C6.50992 21.3332 6.70884 21.3236 6.89173 21.3236C7.53852 21.2763 8.18081 21.4623 8.70129 21.8477C9.30405 22.3761 9.68256 23.1129 9.76008 23.909C9.79124 24.0782 9.81372 24.2488 9.82745 24.4203L10.1483 28.1626C10.2285 29.0862 9.97183 29.802 9.38469 30.2878C9.21325 30.4295 9.02718 30.5527 8.82963 30.6553C9.10673 30.7267 9.37318 30.8342 9.62211 30.9749C10.2831 31.3168 10.6616 31.9336 10.7387 32.8476L11.1205 37.1939C11.1359 37.4067 11.1359 37.6203 11.1205 37.8331C11.1227 38.0804 11.0958 38.3271 11.0402 38.5681C10.8878 39.0995 10.5875 39.577 10.174 39.9455C9.71195 40.3769 8.98363 40.6326 7.92805 40.7253L2.04697 41.2238L0.346497 21.8701ZM6.21153 38.1686H6.25004C6.31807 38.168 6.38508 38.1521 6.44615 38.1222C6.50722 38.0924 6.56081 38.0493 6.60296 37.9961C6.70695 37.8544 6.75075 37.6776 6.72489 37.5039L6.30458 32.7102C6.30398 32.511 6.23234 32.3184 6.10245 32.1669C6.06272 32.1211 6.01341 32.0845 5.95799 32.0597C5.90257 32.0348 5.84237 32.0224 5.7816 32.0231H5.73989H5.65968L6.21153 38.1686ZM5.45434 29.5975H5.49284C5.79123 29.5719 5.84898 29.4984 5.85219 29.4984C5.91924 29.4144 5.96244 29.314 5.97732 29.2076V29.1693C5.97873 29.1587 5.97873 29.1479 5.97732 29.1373L5.60193 24.7207C5.60249 24.5584 5.53913 24.4024 5.42547 24.2861C5.38039 24.2409 5.32617 24.2059 5.26641 24.1833C5.20665 24.1607 5.14275 24.1511 5.07895 24.1551H4.9827L5.45434 29.5975ZM11.5793 20.8921L15.9748 20.5087L17.4411 37.1779L20.7971 36.8839L21.0313 39.5716L13.2797 40.2459L11.5793 20.8921ZM22.0003 36.2703C21.9265 35.463 22.0441 34.6497 22.3436 33.8959C22.6098 33.1944 22.9474 32.5219 23.351 31.8889C23.5243 31.6173 23.6976 31.3648 23.858 31.1379C24.0184 30.911 24.1788 30.6841 24.3264 30.4987L24.8237 29.8116C25.0034 29.5815 25.1446 29.3642 25.2986 29.1533C25.5615 28.7319 25.7767 28.2829 25.9403 27.8143C26.0999 27.3162 26.1513 26.79 26.0911 26.2707L25.7381 22.2376C25.7389 22.2124 25.7342 22.1873 25.7242 22.1641C25.7142 22.1409 25.6993 22.1202 25.6804 22.1034C25.6641 22.0882 25.6449 22.0764 25.624 22.0687C25.603 22.061 25.5808 22.0576 25.5585 22.0586H25.5264C25.4179 22.0675 25.3142 22.1075 25.228 22.1737C25.2023 22.1737 25.1831 22.2024 25.1895 22.2823L25.5713 26.4656L21.1757 26.8427L20.8549 23.2986C20.7362 21.9627 20.9062 21.0615 21.3682 20.5502C21.7808 20.0871 22.33 19.766 22.9372 19.633C23.0749 19.605 23.2142 19.5847 23.3543 19.5723C23.4858 19.5464 23.6186 19.5272 23.7521 19.5148L26.9798 19.2335H27.2686C27.8621 19.232 28.4477 19.3688 28.9787 19.633C29.6589 19.9686 30.0567 20.889 30.1915 22.4517L30.5348 26.3474L30.2139 26.4241L30.5348 26.3857C30.6028 27.0703 30.5845 27.7606 30.4802 28.4406C30.384 29.2012 29.9123 30.1919 29.0332 31.4575C28.7541 31.8729 28.4781 32.2564 28.2215 32.5952C27.9648 32.9339 27.7755 33.2343 27.5798 33.5539C27.3083 34.0011 27.0826 34.4744 26.906 34.9665C26.7544 35.4242 26.6585 35.8985 26.6205 36.379L31.4331 35.9603L31.6673 38.6448L22.257 39.4661L22.0003 36.2703ZM31.1861 19.1728L35.6779 18.7797L37.2821 28.0252L37.3399 18.6359L42.5087 18.1853L44.2027 27.4244L44.161 18.0415L48.6528 17.6484L47.9277 37.2163L42.4188 37.7084L40.8146 28.495L40.8499 37.8459L35.3282 38.3252L31.1861 19.1728ZM49.8592 17.543L56.3756 16.9773C56.4494 16.9773 56.52 16.9773 56.5938 16.9773H56.7381C57.3594 16.9805 57.9633 17.1821 58.4611 17.5525C59.0386 17.9392 59.3819 18.7829 59.4974 20.1315L60.0364 26.2579C60.0364 26.4496 60.0653 26.651 60.0685 26.8971C60.0922 27.1276 60.0922 27.36 60.0685 27.5905C59.9793 28.1447 59.7321 28.6616 59.3562 29.0798C58.9552 29.556 58.2557 29.8308 57.2194 29.9203L55.3906 30.0801L55.9553 36.5196L51.5597 36.9031L49.8592 17.543ZM55.1532 27.3892C55.4066 27.3668 55.5221 27.3029 55.5478 27.255C55.6268 27.1223 55.6585 26.9669 55.6376 26.814L55.0665 20.3105C55.0702 20.2991 55.0702 20.2868 55.0665 20.2754V20.2402V20.2019C55.0482 20.0935 54.9992 19.9927 54.9254 19.911C54.8908 19.8816 54.8503 19.8598 54.8066 19.8471C54.7629 19.8344 54.717 19.8312 54.6719 19.8375H54.566H54.5051L55.1532 27.3892Z" fill="#836600"/>
<path d="M56.597 17.2968H56.7349C57.2904 17.2996 57.8302 17.48 58.275 17.8114C58.7691 18.1309 59.0707 18.9235 59.1798 20.1571L59.7188 26.2866V26.309C59.7348 26.472 59.7445 26.6669 59.7477 26.8906C59.7691 27.1032 59.7691 27.3173 59.7477 27.5298C59.6714 28.0254 59.4543 28.489 59.122 28.8656C58.7819 29.2683 58.1402 29.5112 57.197 29.5943L55.0505 29.7796L55.6152 36.2192L51.8581 36.5387L50.2122 17.8178L56.1189 17.3032L56.4109 17.2777H56.6034M54.8644 27.7471L55.1853 27.7151C55.5286 27.6864 55.7467 27.5841 55.827 27.3956C55.9329 27.2083 55.9767 26.9924 55.9521 26.7788L55.4099 20.3776C55.4099 20.3488 55.4099 20.3169 55.4099 20.2881C55.4061 20.2427 55.3941 20.1983 55.3746 20.1571C55.3493 19.9874 55.2733 19.8293 55.1564 19.7033C55.0925 19.64 55.0154 19.5915 54.9305 19.5611C54.8457 19.5307 54.7552 19.5193 54.6655 19.5275H54.5307L54.1521 19.5595L54.8644 27.7471ZM48.332 18.0063L47.6294 36.9318L42.6723 37.3633L40.4585 24.7335L40.5002 37.5518L35.556 37.9833L31.5743 19.47L35.4244 19.1504L37.5837 31.6715L37.6607 18.9555L42.2488 18.5336L44.5428 31.0452L44.4851 18.3387L48.3352 18.0191M27.2718 19.5435C27.8172 19.5413 28.3555 19.666 28.8439 19.9078C29.4086 20.189 29.7541 21.0413 29.8803 22.4644L30.2011 26.0981C30.2011 26.1428 30.2011 26.1876 30.2011 26.2323C30.2011 26.277 30.2011 26.3218 30.2011 26.3665V26.4113C30.2678 27.0702 30.2506 27.7349 30.1498 28.3895C30.0599 29.1011 29.5958 30.0598 28.7573 31.2657C28.4782 31.6779 28.2087 32.0518 27.9552 32.3906C27.7017 32.7294 27.4932 33.0521 27.2942 33.3685C27.0212 33.8404 26.7986 34.3396 26.6301 34.8578C26.4348 35.4627 26.3268 36.0921 26.3093 36.7273L31.1861 36.3023L31.3658 38.3508L22.5939 39.1178L22.3436 36.2415C22.2701 35.481 22.3801 34.714 22.6645 34.0045C22.923 33.3231 23.2509 32.6699 23.643 32.055C23.8163 31.7834 23.9639 31.5373 24.1436 31.3136C24.3232 31.0899 24.4644 30.8662 24.6056 30.6745L25.1093 29.9778C25.2825 29.7541 25.4301 29.5304 25.5906 29.3099C25.8718 28.8672 26.1022 28.3945 26.2772 27.9005C26.4528 27.3607 26.5108 26.7898 26.4472 26.2259L26.0686 22.2152C26.067 22.1441 26.0491 22.0743 26.0163 22.0112C25.9835 21.948 25.9367 21.8932 25.8793 21.8509C25.7896 21.7766 25.675 21.7389 25.5585 21.7454H25.4975C25.3314 21.7615 25.1728 21.8222 25.0387 21.9212C24.9756 21.9642 24.9263 22.0245 24.8967 22.0948C24.8671 22.1651 24.8585 22.2424 24.8719 22.3174L25.1927 26.1716L21.4356 26.4912L21.1757 23.273C21.0731 22.0309 21.2185 21.1968 21.6121 20.7707C21.9787 20.3577 22.4673 20.0713 23.0078 19.9525C23.1393 19.927 23.2741 19.9078 23.4088 19.895C23.5339 19.8698 23.6603 19.8516 23.7874 19.8407L26.6943 19.585H26.8515H27.0312H27.275M15.6829 20.8953L17.1491 37.5646L20.5052 37.2738L20.6848 39.3223L13.5717 39.9007L11.9258 21.1829L15.6829 20.8634M6.89174 21.6527C7.61685 21.6527 8.15159 21.8008 8.49596 22.0969C8.89626 22.4302 9.18687 22.8756 9.33016 23.3753C9.39045 23.5609 9.42921 23.7529 9.44566 23.9473C9.47775 24.1263 9.50021 24.2956 9.51304 24.4586L9.83389 28.2041C9.90447 29.019 9.6895 29.639 9.1922 30.0577C8.68184 30.4646 8.05495 30.6996 7.40188 30.7288L7.41793 30.9078H7.50776H7.62006C7.72914 30.9078 7.83823 30.9078 7.9409 30.9078C8.47743 30.9029 9.00599 31.0372 9.47454 31.2976C10.0424 31.5917 10.3601 32.1349 10.4371 32.9211L10.8189 37.2674C10.8305 37.4611 10.8305 37.6553 10.8189 37.849C10.8201 38.0782 10.7942 38.3066 10.7419 38.5297C10.6061 38.9999 10.3377 39.4214 9.96864 39.7441C9.56758 40.1244 8.88739 40.3545 7.93448 40.4376L2.33896 40.8818L0.696233 22.1608L6.33347 21.6687C6.52919 21.6687 6.71528 21.6431 6.89174 21.6431M5.1656 29.9522L5.52494 29.9202C5.63346 29.9244 5.74166 29.9061 5.84271 29.8665C5.94377 29.8269 6.03549 29.7668 6.11209 29.6902C6.21383 29.5619 6.27821 29.4082 6.29818 29.2459C6.3061 29.2015 6.3061 29.1561 6.29818 29.1117V28.9775L5.92279 24.6919C5.91662 24.4502 5.8152 24.2206 5.64045 24.0528C5.56639 23.9798 5.47802 23.9228 5.38086 23.8854C5.28369 23.8481 5.17983 23.831 5.07576 23.8354H4.96988L4.633 23.8642L5.1656 29.9362M5.91958 38.4914L6.27572 38.4626C6.38918 38.4581 6.50028 38.4289 6.60117 38.377C6.70206 38.3251 6.7903 38.2518 6.85966 38.1622C7.0102 37.958 7.07677 37.7042 7.04575 37.4528L6.62223 32.659C6.6222 32.5179 6.5938 32.3781 6.5387 32.248C6.48359 32.118 6.4029 32.0002 6.30139 31.9016C6.23552 31.8319 6.15598 31.7763 6.06768 31.7383C5.97937 31.7004 5.8842 31.6809 5.78804 31.6811H5.72066L5.31639 31.7163L5.91316 38.4882M56.6066 16.6449H56.3563L56.1189 16.6673H56.0644L50.148 17.2074L49.5063 17.2649L49.5641 17.904L51.2068 36.625L51.2645 37.2642L51.9062 37.2067L55.6665 36.8871L56.3082 36.8296L56.2505 36.1904L55.7403 30.3868L57.2515 30.2558C58.3777 30.1567 59.1477 29.8436 59.6065 29.2971C60.0168 28.8287 60.284 28.2532 60.3765 27.6384C60.4004 27.3865 60.4004 27.133 60.3765 26.881C60.3765 26.6478 60.3605 26.4496 60.3444 26.277V26.2355L59.8054 20.1059C59.6803 18.6646 59.2953 17.7411 58.6279 17.2904C58.0778 16.8795 57.4097 16.6554 56.7221 16.6513H56.5841L56.6066 16.6449ZM49.0122 17.2841L48.2871 17.3448L44.437 17.6644L43.8498 17.7155V18.3035L43.8755 23.7747L42.8841 18.3834L42.7814 17.8082L42.1911 17.8945L37.6062 18.2939L37.0223 18.3451V18.9267L36.9902 24.4107L36.0597 19.0194L35.9603 18.4377L35.3699 18.4889L31.5198 18.8085L30.7947 18.8724L30.9487 19.5818L34.9432 38.0951L35.0619 38.648L35.6266 38.5968L40.5708 38.1686L41.1579 38.1143V37.5295L41.1419 32.234L42.0563 37.4496L42.1558 38.028L42.7429 37.9769L47.6871 37.5454L48.2518 37.4975L48.2743 36.935L48.9769 18.0095L49.0058 17.2873L49.0122 17.2841ZM27.2718 18.9043H26.9862H26.8643H26.7937H26.7488H26.6365L23.7425 19.1951C23.6036 19.2085 23.4655 19.2287 23.3286 19.2559C23.1821 19.2693 23.0364 19.2907 22.8923 19.3198C22.2213 19.464 21.6136 19.8164 21.1565 20.3265C20.6111 20.9177 20.4153 21.8956 20.534 23.3273L20.8196 26.5583L20.8741 27.1974L21.5158 27.1431L25.2761 26.8235L25.7991 26.7788C25.8019 27.1044 25.751 27.4283 25.6483 27.7375C25.4826 28.186 25.2673 28.6147 25.0066 29.0158C24.8783 29.214 24.7243 29.4249 24.5606 29.6358L24.0633 30.3261C23.935 30.4923 23.7778 30.7064 23.6013 30.9493C23.4249 31.1922 23.258 31.4415 23.0783 31.7227C22.6642 32.3728 22.318 33.0635 22.0452 33.784C21.7281 34.5825 21.6028 35.4438 21.6795 36.2991L21.9329 39.1753L21.9875 39.8144L22.6292 39.7601L31.3978 38.9867L32.0395 38.9292L31.985 38.29L31.8053 36.2383L31.7508 35.5992L31.1091 35.6567L27.0023 36.0146C27.0448 35.6887 27.1189 35.3676 27.2237 35.0559C27.391 34.5838 27.606 34.1298 27.8653 33.7009C28.0514 33.4037 28.2632 33.0905 28.507 32.7677C28.7509 32.4449 29.0396 32.0423 29.3252 31.6204C30.23 30.3165 30.7209 29.2811 30.8203 28.4598C30.9287 27.7576 30.9471 27.0445 30.8749 26.3378V26.2994V26.178V26.0278L30.554 22.4005C30.4064 20.7195 29.9508 19.7129 29.1648 19.323C28.576 19.0359 27.9272 18.8924 27.2718 18.9043ZM16.2668 20.1603L15.6251 20.2178L11.8712 20.5438L11.2296 20.6013L11.2873 21.2405L12.93 39.9455L12.9878 40.5846L13.6295 40.5271L20.7458 39.9071L21.3875 39.8528L21.3297 39.2136L21.1501 37.1619L21.0955 36.5228L20.4538 36.5771L17.7363 36.8136L16.3246 20.7994L16.2668 20.1603ZM6.89174 21.004C6.69923 21.004 6.49068 21.004 6.27893 21.0327L0.641689 21.5249L0 21.5792L0.0545436 22.2184L1.70048 40.9362L1.75823 41.5753L2.39992 41.521L7.99224 41.032C9.10557 40.9362 9.89805 40.6517 10.4146 40.166C10.8732 39.7622 11.207 39.2368 11.3771 38.6512V38.6256C11.438 38.3614 11.4692 38.0913 11.4702 37.8203C11.4831 37.6074 11.4831 37.394 11.4702 37.1811L11.0884 32.8348C10.9761 31.5757 10.328 30.9813 9.80501 30.7032L9.574 30.585L9.61892 30.5498C10.2959 29.9906 10.5815 29.182 10.498 28.1466L10.1772 24.4043C10.1611 24.2317 10.1387 24.0496 10.1066 23.8642C10.083 23.6362 10.0357 23.4113 9.96543 23.1931C9.78846 22.5777 9.43094 22.0291 8.93873 21.6176C8.4735 21.2149 7.81256 21.0168 6.92062 21.0168L6.89174 21.004Z" fill="black"/>
<path d="M1.94434 21.7294L7.90242 21.2117C8.10776 21.1925 8.30668 21.1829 8.48956 21.1829C9.13636 21.1356 9.77865 21.3216 10.2991 21.707C10.7461 22.0808 11.0702 22.5795 11.2296 23.1388C11.2961 23.3464 11.3391 23.5608 11.3579 23.7779C11.3868 23.9377 11.4125 24.1199 11.4253 24.2892L11.7461 28.0315C11.8263 28.9551 11.5697 29.671 10.9825 30.1599C10.8102 30.2996 10.6243 30.4216 10.4275 30.5242C10.7045 30.5958 10.971 30.7032 11.22 30.8438C11.8809 31.1858 12.2595 31.8026 12.3365 32.7166L12.7279 37.0692C12.7434 37.282 12.7434 37.4956 12.7279 37.7084C12.73 37.9546 12.7031 38.2003 12.6477 38.4402C12.4961 38.972 12.1956 39.4497 11.7814 39.8176C11.3194 40.2523 10.5911 40.5079 9.53552 40.5974L3.62235 41.1119L1.94434 21.7294ZM7.80937 38.028H7.84788C7.9163 38.0276 7.98372 38.0116 8.04492 37.9811C8.10612 37.9506 8.15946 37.9065 8.2008 37.8522C8.3046 37.7116 8.34842 37.5359 8.32273 37.3633L7.90242 32.5696C7.9019 32.3713 7.8302 32.1797 7.70029 32.0295C7.66276 31.9849 7.6162 31.9488 7.56367 31.9235C7.51114 31.8982 7.45382 31.8842 7.39548 31.8825H7.35378H7.27036L7.80937 38.028ZM7.0586 29.46H7.0971C7.39548 29.4345 7.45645 29.3578 7.45645 29.3578C7.52338 29.2749 7.56661 29.1755 7.58157 29.0702V29.0286C7.5846 29.0182 7.5846 29.0071 7.58157 28.9967L7.19977 24.5801C7.19686 24.4232 7.13371 24.2734 7.0233 24.1614C6.97861 24.1158 6.92444 24.0804 6.86459 24.0577C6.80474 24.0351 6.74065 24.0258 6.67679 24.0304H6.58054L7.0586 29.46ZM13.1771 20.7515L17.5727 20.368L19.0389 37.0373L22.395 36.7497L22.6324 39.4341L14.8776 40.1116L13.1771 20.7515ZM23.5981 36.1297C23.526 35.3224 23.6436 34.5094 23.9414 33.7552C24.2096 33.0556 24.5471 32.3844 24.9489 31.7514C25.1254 31.4766 25.2954 31.2241 25.4558 31.0004C25.6162 30.7767 25.7767 30.5466 25.9275 30.3613L26.4216 29.6742C26.6012 29.4473 26.7424 29.2268 26.8964 29.0126C27.1591 28.5923 27.3743 28.1443 27.5381 27.6768C27.6974 27.1787 27.7488 26.6526 27.6889 26.1332L27.336 22.1001C27.336 22.0011 27.2943 21.9755 27.2782 21.9659C27.2619 21.9507 27.2428 21.9389 27.2218 21.9312C27.2009 21.9235 27.1786 21.9201 27.1563 21.9212H27.1242C27.0161 21.9316 26.9128 21.9714 26.8258 22.0362C26.8002 22.0362 26.7809 22.065 26.7905 22.1481L27.1563 26.3218L22.78 26.7085L22.4591 23.1611C22.3404 21.8221 22.5105 20.9241 22.9725 20.4095C23.3851 19.9464 23.9343 19.6253 24.5414 19.4923C24.6826 19.4668 24.8238 19.4444 24.9617 19.4316C25.0997 19.4188 25.2344 19.3869 25.3564 19.3741L28.6001 19.0929H28.8728C29.4663 19.0914 30.052 19.2282 30.5829 19.4923C31.2631 19.8279 31.661 20.7515 31.7989 22.311L32.139 26.2035L31.8182 26.277L32.139 26.2419C32.2106 26.9283 32.1934 27.6211 32.0877 28.3032C31.9914 29.067 31.5198 30.0577 30.6407 31.3232C30.3583 31.7387 30.0856 32.1221 29.8289 32.4609C29.5723 32.7997 29.383 33.1001 29.1872 33.4196C28.9158 33.8669 28.6901 34.3401 28.5135 34.8322C28.3645 35.2881 28.2707 35.7602 28.2343 36.2383L33.047 35.8165L33.2812 38.5042L23.8709 39.3223L23.5981 36.1297ZM32.7839 19.0417L37.2757 18.6487L38.88 27.8973L38.9377 18.5048L44.1065 18.0542L45.8006 27.2933L45.7589 17.9104L50.2507 17.5173L49.5224 37.0852L44.0006 37.5678L42.3964 28.3543L42.4285 37.7052L36.9068 38.1878L32.7839 19.0417ZM51.4571 17.4151L57.9478 16.8494C58.03 16.8453 58.1125 16.8453 58.1948 16.8494H58.336C58.9578 16.8524 59.5621 17.0553 60.0589 17.4279C60.6364 17.8114 60.9797 18.6582 61.0952 20.0037L61.6343 26.1332C61.6535 26.325 61.6631 26.5231 61.6663 26.7724C61.6901 27.0029 61.6901 27.2353 61.6663 27.4659C61.5779 28.0162 61.333 28.5297 60.9605 28.9455C60.5594 29.4217 59.86 29.6965 58.8237 29.7892L56.9948 29.9458L57.5595 36.3885L53.164 36.772L51.4571 17.4151ZM56.7542 27.2613C57.0077 27.2422 57.1232 27.1782 57.1488 27.1303C57.2279 26.9964 57.2595 26.84 57.2387 26.6861L56.6676 20.1794V20.1443V20.074C56.6491 19.9666 56.6001 19.8668 56.5264 19.7864C56.4918 19.7569 56.4513 19.7351 56.4076 19.7224C56.3639 19.7098 56.318 19.7065 56.2729 19.7129H56.1478H56.0868L56.7542 27.2613Z" fill="#FCF521"/>
<path d="M58.1948 17.1562H58.3328C58.8889 17.158 59.4293 17.3397 59.8728 17.6739C60.3669 18.0041 60.6685 18.786 60.7776 20.0196L61.3166 26.1459V26.1683C61.3166 26.3345 61.3423 26.5262 61.3455 26.75C61.3669 26.9625 61.3669 27.1766 61.3455 27.3891C61.2699 27.885 61.0527 28.3487 60.7199 28.725C60.3798 29.1276 59.7381 29.3705 58.7948 29.4536L56.6483 29.6422L57.2066 36.1104L53.4495 36.43L51.8036 17.7122L57.7103 17.1977L58.0023 17.1721H58.1948M56.4687 27.6064L56.7895 27.5777C57.1328 27.5489 57.351 27.4466 57.4312 27.2581C57.538 27.0711 57.5819 26.8549 57.5563 26.6413L56.9916 20.2209C56.9932 20.1922 56.9932 20.1634 56.9916 20.1346C56.9875 20.0883 56.9755 20.0429 56.9563 20.0004C56.9305 19.8319 56.8545 19.6749 56.7382 19.5498C56.6746 19.486 56.5976 19.4371 56.5127 19.4067C56.4277 19.3763 56.3371 19.3651 56.2473 19.374H56.1125L55.7339 19.4092L56.4687 27.6064ZM49.9299 17.8688L49.2272 36.7943L44.2766 37.2226L42.0692 24.6056L42.1109 37.4239L37.1667 37.8554L33.1721 19.3293L37.0223 18.9937L39.1816 31.5149L39.2586 18.7988L43.8466 18.3993L46.1407 30.9077L46.0829 18.214L49.9331 17.8944M28.876 19.4028C29.4208 19.4007 29.9583 19.5266 30.445 19.7703C31.0096 20.0494 31.3551 20.9016 31.4813 22.327L31.8021 25.9574C31.8021 26.0021 31.8021 26.0469 31.8021 26.0916C31.8021 26.1364 31.8021 26.1811 31.8021 26.2258V26.2706C31.8688 26.9306 31.8516 27.5963 31.7508 28.252C31.6631 28.9614 31.1989 29.9202 30.3583 31.1282C30.0792 31.5405 29.8097 31.9176 29.5562 32.2531C29.3028 32.5887 29.0942 32.9146 28.9145 33.231C28.6279 33.6972 28.3913 34.192 28.2087 34.7075C28.0142 35.3126 27.9062 35.9419 27.8878 36.577L32.7647 36.152L32.9443 38.2037L24.1692 38.9867L23.919 36.1104C23.8475 35.35 23.9575 34.5835 24.2398 33.8734C24.4939 33.1929 24.8164 32.5398 25.2024 31.924C25.3756 31.6555 25.5425 31.4094 25.7029 31.1857C25.8761 30.946 26.0237 30.7383 26.1649 30.5466L26.6686 29.8531C26.8462 29.64 27.0066 29.4163 27.1499 29.182C27.4354 28.749 27.6721 28.286 27.8557 27.8014C28.0287 27.2599 28.0855 26.6883 28.0226 26.1236L27.6697 22.0905C27.6668 22.0193 27.648 21.9497 27.6147 21.8867C27.5814 21.8237 27.5344 21.7688 27.4771 21.7262C27.3874 21.6519 27.2728 21.6142 27.1563 21.6207H27.0953C26.9292 21.6342 26.7702 21.694 26.6365 21.7933C26.5734 21.8363 26.5241 21.8966 26.4945 21.9669C26.4649 22.0372 26.4563 22.1145 26.4697 22.1895L26.7905 26.0469L23.0335 26.3665L22.78 23.1323C22.6741 21.8987 22.8185 21.0646 23.2163 20.6236C23.5821 20.2142 24.0683 19.9301 24.6056 19.8119C24.7371 19.7863 24.8719 19.7671 25.0066 19.7543C25.1318 19.7293 25.2581 19.7112 25.3852 19.7L28.2921 19.4475L28.4493 19.4316H28.629H28.8728M17.2839 20.7418L18.747 37.3888L22.103 37.0948L22.2827 39.1465L15.1696 39.7664L13.5236 21.0423L17.2839 20.7227M8.48957 21.5024C9.0604 21.4551 9.62941 21.6126 10.0938 21.9467C10.4941 22.28 10.7847 22.7253 10.928 23.225C10.9878 23.412 11.0276 23.6049 11.0467 23.8002C11.0756 23.976 11.098 24.1454 11.1141 24.3116L11.4349 28.0538C11.5055 28.872 11.2916 29.4898 10.7932 29.9074C10.2787 30.3196 9.64361 30.554 8.98367 30.5753L8.99971 30.7543H9.08955H9.20185C9.31093 30.7543 9.42002 30.7543 9.52269 30.7543C10.0587 30.749 10.5865 30.8846 11.0531 31.1474C11.6221 31.4414 11.9429 31.9825 12.0157 32.7708L12.4103 37.0692C12.4219 37.264 12.4219 37.4592 12.4103 37.654C12.4111 37.8831 12.3853 38.1116 12.3333 38.3347C12.196 38.8033 11.9278 39.2233 11.5601 39.5459C11.1654 39.9454 10.4852 40.1691 9.53232 40.265L3.93679 40.7539L2.29406 22.0202L7.9313 21.5312C8.12595 21.512 8.31204 21.5024 8.48957 21.5024ZM6.76343 29.8115L7.12277 29.7796C7.23015 29.7815 7.33679 29.7616 7.43612 29.7209C7.53545 29.6802 7.62536 29.6197 7.70029 29.5431C7.80207 29.4145 7.86743 29.2611 7.88959 29.0989C7.89596 29.0543 7.89596 29.0092 7.88959 28.9646V28.8304L7.52062 24.5512C7.51496 24.3101 7.41477 24.0806 7.24149 23.9121C7.16694 23.84 7.0784 23.7838 6.98131 23.747C6.88421 23.7102 6.7806 23.6935 6.6768 23.698H6.56771L6.24687 23.7267L6.77947 29.7987M7.53345 38.3571L7.88959 38.3251C8.00267 38.3204 8.11338 38.2914 8.21416 38.2401C8.31494 38.1888 8.40341 38.1164 8.47353 38.0279C8.62399 37.8224 8.6905 37.5677 8.65962 37.3153L8.23931 32.5216C8.23882 32.38 8.21022 32.2399 8.15515 32.1093C8.10009 31.9788 8.01965 31.8604 7.91847 31.761C7.85309 31.6914 7.77409 31.636 7.68634 31.598C7.5986 31.5601 7.50398 31.5405 7.40833 31.5405H7.33774L6.93348 31.5756L7.53025 38.3507M58.2237 16.5042C58.1403 16.4994 58.0568 16.4994 57.9734 16.5042H57.8547H57.6847L51.7779 17.0219L51.1362 17.0763L51.194 17.7154L52.8367 36.4364L52.8945 37.0756L53.5361 37.0212L57.2964 36.7017L57.9381 36.6473L57.8804 36.0082L57.3734 30.2046L58.8814 30.0736C60.0076 29.9777 60.7776 29.6645 61.2364 29.1148C61.6472 28.6468 61.9145 28.0711 62.0064 27.4562C62.0303 27.2054 62.0303 26.9529 62.0064 26.702C62.0064 26.4655 62.0064 26.2674 61.9776 26.098V26.0788L61.4385 19.9461C61.3134 18.5048 60.9284 17.5844 60.261 17.1338C59.711 16.7228 59.0429 16.4988 58.3552 16.4946H58.2173L58.2237 16.5042ZM50.6293 17.1434L49.9042 17.2073L46.054 17.5269L45.4637 17.578V18.214L45.4894 23.682L44.498 18.2907L44.3953 17.7186L43.8113 17.7698L39.2265 18.1692L38.6425 18.2204V18.802L38.5848 24.286L37.6543 18.8947L37.5549 18.3162L36.9645 18.3674L33.1144 18.6869L32.3893 18.7509L32.5433 19.4571L36.5378 37.9736L36.6565 38.5233L37.2212 38.4753L42.1654 38.0439L42.7526 37.9928V37.4048L42.7365 32.1125L43.6509 37.328L43.7504 37.9065L44.3375 37.8554L49.2817 37.4239L49.8464 37.3728L49.8689 36.8103L50.5715 17.8944L50.6004 17.1721L50.6293 17.1434ZM28.876 18.7636H28.5905H28.398L28.2408 18.7796L25.3307 19.0321C25.1918 19.0443 25.0537 19.0635 24.9168 19.0896C24.7724 19.0896 24.6248 19.1248 24.4837 19.1535C23.8117 19.2994 23.2032 19.6528 22.7447 20.1634C22.2089 20.7706 22.0132 21.7581 22.1383 23.1866L22.4238 26.4208L22.4784 27.0599L23.1201 27.0024L26.8804 26.6828L27.4034 26.6381C27.4059 26.9637 27.355 27.2876 27.2526 27.5968C27.087 28.0454 26.8718 28.4741 26.6109 28.8752C26.4793 29.0733 26.3285 29.2874 26.1649 29.4951L25.6676 30.1854C25.5392 30.3548 25.382 30.5657 25.2056 30.8246C25.0291 31.0835 24.8559 31.3167 24.6762 31.582C24.2627 32.2325 23.9165 32.9231 23.6431 33.6433C23.3262 34.4418 23.2009 35.3031 23.2773 36.1584L23.5308 39.0346L23.5885 39.6738L24.2302 39.6162L32.9989 38.8524L33.6406 38.7981L33.5828 38.159L33.3999 36.1104L33.3454 35.4713L32.7037 35.5256L28.5969 35.8835C28.6385 35.5571 28.7138 35.2359 28.8215 34.9248C28.9874 34.4511 29.2024 33.9959 29.4632 33.5666C29.6493 33.2726 29.861 32.9562 30.1049 32.6366C30.3487 32.317 30.6375 31.908 30.923 31.4893C31.8278 30.1854 32.3187 29.15 32.4182 28.3255C32.5266 27.6233 32.545 26.9102 32.4727 26.2035V26.1683V26.0437V25.8967L32.1519 22.2662C32.0043 20.5884 31.5487 19.5818 30.7626 19.1919C30.1767 18.9022 29.5301 18.7554 28.876 18.7636ZM17.8646 20.0228L17.223 20.0771L13.4755 20.4063L12.8338 20.451L12.8916 21.0902L14.5343 39.8112L14.592 40.4503L15.2337 40.396L22.3501 39.776L22.9917 39.7185L22.934 39.0793L22.7543 37.0308L22.6998 36.3917L22.0581 36.4492L19.3405 36.6857L17.9224 20.6588L17.8646 20.0196V20.0228ZM8.48957 20.8633C8.29706 20.8633 8.08852 20.8633 7.87676 20.892L2.24594 21.3842L1.60425 21.4417L1.662 22.0809L3.30472 40.7987L3.36248 41.4378L4.00416 41.3803L9.58686 40.9042C10.7002 40.8051 11.4927 40.5238 12.0092 40.0381C12.4667 39.632 12.8002 39.106 12.9718 38.5201V38.4977C13.0326 38.2324 13.0638 37.9613 13.0648 37.6892C13.0777 37.4763 13.0777 37.2629 13.0648 37.05L12.683 32.7037C12.5739 31.4478 11.9226 30.8534 11.3996 30.5753C11.3226 30.5338 11.2456 30.4922 11.1686 30.4571L11.2135 30.4187C11.8905 29.8595 12.1761 29.0509 12.0927 28.0187L11.7718 24.2732C11.7718 24.1006 11.7333 23.9217 11.7012 23.7363C11.6781 23.4991 11.6275 23.2653 11.5504 23.0396C11.3738 22.425 11.0161 21.8773 10.5237 21.4673C10.0585 21.0614 9.39756 20.8633 8.50561 20.8633H8.48957Z" fill="black"/>
<path d="M71.408 13.8299H75.2C76.16 13.8299 76.912 14.0913 77.456 14.6139C78 15.1366 78.272 15.8353 78.272 16.7099C78.272 17.3819 78.1067 17.9099 77.776 18.2939C77.456 18.6779 77.04 18.9499 76.528 19.1099V19.1579C77.1573 19.3073 77.6747 19.5899 78.08 20.0059C78.4853 20.4113 78.688 21.0033 78.688 21.7819C78.688 22.2299 78.6133 22.6513 78.464 23.0459C78.3147 23.4406 78.1013 23.7819 77.824 24.0699C77.5573 24.3579 77.2373 24.5873 76.864 24.7579C76.5013 24.9179 76.1067 24.9979 75.68 24.9979H71.408V13.8299ZM75.28 23.8299C75.8987 23.8299 76.384 23.6913 76.736 23.4139C77.088 23.1366 77.264 22.7099 77.264 22.1339V21.4779C77.264 20.9126 77.088 20.4913 76.736 20.2139C76.384 19.9259 75.8987 19.7819 75.28 19.7819H72.752V23.8299H75.28ZM75.056 18.6779C75.6213 18.6779 76.064 18.5553 76.384 18.3099C76.704 18.0539 76.864 17.6699 76.864 17.1579V16.5339C76.864 16.0219 76.704 15.6379 76.384 15.3819C76.064 15.1259 75.6213 14.9979 75.056 14.9979H72.752V18.6779H75.056ZM84.3938 25.1899C83.8178 25.1899 83.2951 25.0886 82.8258 24.8859C82.3671 24.6833 81.9724 24.3953 81.6418 24.0219C81.3218 23.6379 81.0764 23.1846 80.9058 22.6619C80.7351 22.1286 80.6497 21.5313 80.6497 20.8699C80.6497 20.2193 80.7351 19.6273 80.9058 19.0939C81.0764 18.5606 81.3218 18.1073 81.6418 17.7339C81.9724 17.3499 82.3671 17.0566 82.8258 16.8539C83.2951 16.6513 83.8178 16.5499 84.3938 16.5499C84.9698 16.5499 85.4871 16.6513 85.9458 16.8539C86.4151 17.0566 86.8098 17.3499 87.1298 17.7339C87.4604 18.1073 87.7111 18.5606 87.8818 19.0939C88.0524 19.6273 88.1378 20.2193 88.1378 20.8699C88.1378 21.5313 88.0524 22.1286 87.8818 22.6619C87.7111 23.1846 87.4604 23.6379 87.1298 24.0219C86.8098 24.3953 86.4151 24.6833 85.9458 24.8859C85.4871 25.0886 84.9698 25.1899 84.3938 25.1899ZM84.3938 24.0859C85.1084 24.0859 85.6844 23.8726 86.1218 23.4459C86.5591 23.0193 86.7778 22.3579 86.7778 21.4619V20.2779C86.7778 19.3819 86.5591 18.7206 86.1218 18.2939C85.6844 17.8673 85.1084 17.6539 84.3938 17.6539C83.6791 17.6539 83.1031 17.8673 82.6658 18.2939C82.2284 18.7206 82.0098 19.3819 82.0098 20.2779V21.4619C82.0098 22.3579 82.2284 23.0193 82.6658 23.4459C83.1031 23.8726 83.6791 24.0859 84.3938 24.0859ZM90.4195 23.9099H92.8355V17.8299H90.4195V16.7419H94.1155V18.8219H94.1955C94.3662 18.1713 94.6862 17.6646 95.1555 17.3019C95.6355 16.9286 96.2435 16.7419 96.9795 16.7419H98.1315V18.0219H96.5795C95.8435 18.0219 95.2462 18.2353 94.7875 18.6619C94.3395 19.0886 94.1155 19.6486 94.1155 20.3419V23.9099H97.3155V24.9979H90.4195V23.9099ZM105.581 23.6539H105.517C104.984 24.6779 104.136 25.1899 102.973 25.1899C101.96 25.1899 101.165 24.8113 100.589 24.0539C100.024 23.2966 99.7413 22.2353 99.7413 20.8699C99.7413 19.5046 100.024 18.4433 100.589 17.6859C101.165 16.9286 101.96 16.5499 102.973 16.5499C104.136 16.5499 104.984 17.0619 105.517 18.0859H105.581V13.1579H106.861V24.9979H105.581V23.6539ZM103.469 24.0539C103.757 24.0539 104.029 24.0166 104.285 23.9419C104.541 23.8673 104.765 23.7606 104.957 23.6219C105.149 23.4726 105.299 23.2966 105.405 23.0939C105.523 22.8806 105.581 22.6353 105.581 22.3579V19.3819C105.581 19.1046 105.523 18.8646 105.405 18.6619C105.299 18.4486 105.149 18.2726 104.957 18.1339C104.765 17.9846 104.541 17.8726 104.285 17.7979C104.029 17.7233 103.757 17.6859 103.469 17.6859C102.723 17.6859 102.141 17.9153 101.725 18.3739C101.32 18.8219 101.117 19.4193 101.117 20.1659V21.5739C101.117 22.3206 101.32 22.9233 101.725 23.3819C102.141 23.8299 102.723 24.0539 103.469 24.0539ZM113.319 25.1899C112.722 25.1899 112.183 25.0886 111.703 24.8859C111.234 24.6833 110.828 24.3953 110.487 24.0219C110.156 23.6379 109.9 23.1846 109.719 22.6619C109.538 22.1286 109.447 21.5366 109.447 20.8859C109.447 20.2246 109.538 19.6273 109.719 19.0939C109.911 18.5606 110.172 18.1073 110.503 17.7339C110.834 17.3499 111.228 17.0566 111.687 16.8539C112.156 16.6513 112.674 16.5499 113.239 16.5499C113.794 16.5499 114.295 16.6513 114.743 16.8539C115.202 17.0566 115.591 17.3393 115.911 17.7019C116.231 18.0539 116.476 18.4753 116.647 18.9659C116.818 19.4566 116.903 19.9953 116.903 20.5819V21.1899H110.791V21.5739C110.791 21.9366 110.85 22.2726 110.967 22.5819C111.084 22.8913 111.25 23.1579 111.463 23.3819C111.687 23.6059 111.954 23.7819 112.263 23.9099C112.583 24.0273 112.935 24.0859 113.319 24.0859C113.874 24.0859 114.354 23.9579 114.759 23.7019C115.164 23.4459 115.474 23.0939 115.687 22.6459L116.631 23.2859C116.386 23.8406 115.975 24.2993 115.399 24.6619C114.834 25.0139 114.14 25.1899 113.319 25.1899ZM113.239 17.6059C112.887 17.6059 112.562 17.6699 112.263 17.7979C111.964 17.9259 111.703 18.1019 111.479 18.3259C111.266 18.5499 111.095 18.8166 110.967 19.1259C110.85 19.4246 110.791 19.7553 110.791 20.1179V20.2299H115.527V20.0539C115.527 19.6913 115.468 19.3606 115.351 19.0619C115.244 18.7633 115.09 18.5073 114.887 18.2939C114.695 18.0699 114.455 17.8993 114.167 17.7819C113.89 17.6646 113.58 17.6059 113.239 17.6059ZM119.201 23.9099H121.617V17.8299H119.201V16.7419H122.897V18.8219H122.977C123.147 18.1713 123.467 17.6646 123.937 17.3019C124.417 16.9286 125.025 16.7419 125.761 16.7419H126.913V18.0219H125.361C124.625 18.0219 124.027 18.2353 123.569 18.6619C123.121 19.0886 122.897 19.6486 122.897 20.3419V23.9099H126.097V24.9979H119.201V23.9099ZM128.843 23.9099H131.723V14.2459H128.843V13.1579H133.003V23.9099H135.883V24.9979H128.843V23.9099ZM145.076 24.9979C144.575 24.9979 144.218 24.8699 144.004 24.6139C143.791 24.3579 143.658 24.0379 143.604 23.6539H143.524C143.343 24.1339 143.05 24.5126 142.644 24.7899C142.25 25.0566 141.716 25.1899 141.044 25.1899C140.18 25.1899 139.492 24.9659 138.98 24.5179C138.468 24.0699 138.212 23.4566 138.212 22.6779C138.212 21.9099 138.49 21.3179 139.044 20.9019C139.61 20.4859 140.516 20.2779 141.764 20.2779H143.524V19.4619C143.524 18.8539 143.354 18.4006 143.012 18.1019C142.671 17.7926 142.186 17.6379 141.556 17.6379C141.002 17.6379 140.548 17.7499 140.196 17.9739C139.844 18.1873 139.562 18.4806 139.348 18.8539L138.484 18.2139C138.591 18.0006 138.735 17.7926 138.916 17.5899C139.098 17.3873 139.322 17.2113 139.588 17.0619C139.855 16.9019 140.159 16.7793 140.5 16.6939C140.842 16.5979 141.22 16.5499 141.636 16.5499C142.607 16.5499 143.375 16.7953 143.94 17.2859C144.516 17.7766 144.804 18.4593 144.804 19.3339V23.8779H145.956V24.9979H145.076ZM141.268 24.1179C141.599 24.1179 141.898 24.0806 142.164 24.0059C142.442 23.9206 142.682 23.8139 142.884 23.6859C143.087 23.5473 143.242 23.3873 143.348 23.2059C143.466 23.0139 143.524 22.8113 143.524 22.5979V21.2379H141.764C140.996 21.2379 140.436 21.3446 140.084 21.5579C139.732 21.7713 139.556 22.0806 139.556 22.4859V22.8219C139.556 23.2486 139.706 23.5739 140.004 23.7979C140.314 24.0113 140.735 24.1179 141.268 24.1179ZM148.318 24.9979V16.7419H149.598V18.0859H149.662C149.747 17.8833 149.854 17.6913 149.982 17.5099C150.11 17.3179 150.265 17.1526 150.446 17.0139C150.638 16.8753 150.862 16.7633 151.118 16.6779C151.374 16.5926 151.673 16.5499 152.014 16.5499C152.878 16.5499 153.571 16.8273 154.094 17.3819C154.617 17.9259 154.878 18.6993 154.878 19.7019V24.9979H153.598V19.9259C153.598 19.1686 153.433 18.6086 153.102 18.2459C152.771 17.8726 152.286 17.6859 151.646 17.6859C151.39 17.6859 151.139 17.7179 150.894 17.7819C150.649 17.8459 150.43 17.9419 150.238 18.0699C150.046 18.1979 149.891 18.3633 149.774 18.5659C149.657 18.7686 149.598 19.0033 149.598 19.2699V24.9979H148.318ZM163.144 23.6539H163.08C162.546 24.6779 161.698 25.1899 160.536 25.1899C159.522 25.1899 158.728 24.8113 158.152 24.0539C157.586 23.2966 157.304 22.2353 157.304 20.8699C157.304 19.5046 157.586 18.4433 158.152 17.6859C158.728 16.9286 159.522 16.5499 160.536 16.5499C161.698 16.5499 162.546 17.0619 163.08 18.0859H163.144V13.1579H164.424V24.9979H163.144V23.6539ZM161.032 24.0539C161.32 24.0539 161.592 24.0166 161.848 23.9419C162.104 23.8673 162.328 23.7606 162.52 23.6219C162.712 23.4726 162.861 23.2966 162.968 23.0939C163.085 22.8806 163.144 22.6353 163.144 22.3579V19.3819C163.144 19.1046 163.085 18.8646 162.968 18.6619C162.861 18.4486 162.712 18.2726 162.52 18.1339C162.328 17.9846 162.104 17.8726 161.848 17.7979C161.592 17.7233 161.32 17.6859 161.032 17.6859C160.285 17.6859 159.704 17.9153 159.288 18.3739C158.882 18.8219 158.68 19.4193 158.68 20.1659V21.5739C158.68 22.3206 158.882 22.9233 159.288 23.3819C159.704 23.8299 160.285 24.0539 161.032 24.0539ZM170.834 25.1899C169.97 25.1899 169.223 25.0459 168.594 24.7579C167.975 24.4593 167.447 24.0646 167.01 23.5739L167.874 22.8219C168.268 23.2379 168.7 23.5579 169.17 23.7819C169.639 24.0059 170.204 24.1179 170.866 24.1179C171.506 24.1179 172.028 24.0059 172.434 23.7819C172.85 23.5473 173.058 23.1846 173.058 22.6939C173.058 22.4806 173.015 22.3046 172.93 22.1659C172.855 22.0166 172.748 21.8993 172.61 21.8139C172.471 21.7286 172.316 21.6646 172.146 21.6219C171.975 21.5686 171.794 21.5259 171.602 21.4939L170.306 21.3019C170.018 21.2593 169.703 21.2006 169.362 21.1259C169.031 21.0513 168.727 20.9339 168.45 20.7739C168.172 20.6033 167.938 20.3793 167.746 20.1019C167.564 19.8246 167.474 19.4619 167.474 19.0139C167.474 18.5979 167.554 18.2406 167.714 17.9419C167.884 17.6326 168.119 17.3766 168.418 17.1739C168.716 16.9606 169.068 16.8059 169.474 16.7099C169.879 16.6033 170.322 16.5499 170.802 16.5499C171.548 16.5499 172.194 16.6673 172.738 16.9019C173.292 17.1366 173.767 17.4619 174.161 17.8779L173.33 18.6619C173.234 18.5446 173.111 18.4273 172.962 18.3099C172.823 18.1819 172.647 18.0699 172.434 17.9739C172.231 17.8673 171.991 17.7819 171.714 17.7179C171.436 17.6539 171.116 17.6219 170.754 17.6219C170.103 17.6219 169.602 17.7339 169.25 17.9579C168.908 18.1819 168.738 18.5073 168.738 18.9339C168.738 19.1473 168.775 19.3286 168.85 19.4779C168.935 19.6166 169.047 19.7286 169.186 19.8139C169.324 19.8993 169.479 19.9686 169.65 20.0219C169.831 20.0646 170.012 20.1019 170.194 20.1339L171.49 20.3259C171.788 20.3686 172.103 20.4273 172.434 20.5019C172.764 20.5766 173.068 20.6993 173.346 20.8699C173.623 21.0299 173.852 21.2486 174.034 21.5259C174.226 21.8033 174.322 22.1659 174.322 22.6139C174.322 23.4353 174.002 24.0699 173.362 24.5179C172.732 24.9659 171.89 25.1899 170.834 25.1899ZM193.717 24.9979H186.261V23.6219L189.989 20.2619C190.533 19.7713 190.981 19.2699 191.333 18.7579C191.685 18.2353 191.861 17.6859 191.861 17.1099V16.9179C191.861 16.2459 191.685 15.7286 191.333 15.3659C190.981 14.9926 190.458 14.8059 189.765 14.8059C189.082 14.8059 188.554 14.9819 188.181 15.3339C187.818 15.6753 187.546 16.1339 187.365 16.7099L186.165 16.2619C186.272 15.9313 186.416 15.6113 186.597 15.3019C186.789 14.9819 187.029 14.6993 187.317 14.4539C187.605 14.2086 187.952 14.0113 188.357 13.8619C188.773 13.7126 189.253 13.6379 189.797 13.6379C190.352 13.6379 190.842 13.7179 191.269 13.8779C191.706 14.0379 192.069 14.2619 192.357 14.5499C192.656 14.8379 192.88 15.1793 193.029 15.5739C193.189 15.9686 193.269 16.4006 193.269 16.8699C193.269 17.2966 193.205 17.6966 193.077 18.0699C192.96 18.4433 192.789 18.8006 192.565 19.1419C192.352 19.4833 192.09 19.8193 191.781 20.1499C191.482 20.4699 191.146 20.7899 190.773 21.1099L187.653 23.8299H193.717V24.9979Z" fill="#EFEFEF"/>
<path d="M70.42 35.7739H71.414L72.24 42.0179H72.366L73.598 35.7739H74.83L76.062 42.0179H76.188L77.014 35.7739H77.98L76.874 42.9979H75.418L74.27 36.9499H74.158L72.982 42.9979H71.526L70.42 35.7739ZM82.7205 43.1659C82.1979 43.1659 81.7265 43.0773 81.3065 42.8999C80.8959 42.7226 80.5412 42.4706 80.2425 42.1439C79.9532 41.8079 79.7292 41.4113 79.5705 40.9539C79.4119 40.4873 79.3325 39.9693 79.3325 39.3999C79.3325 38.8213 79.4119 38.2986 79.5705 37.8319C79.7385 37.3653 79.9672 36.9686 80.2565 36.6419C80.5459 36.3059 80.8912 36.0493 81.2925 35.8719C81.7032 35.6946 82.1559 35.6059 82.6505 35.6059C83.1359 35.6059 83.5745 35.6946 83.9665 35.8719C84.3679 36.0493 84.7085 36.2966 84.9885 36.6139C85.2685 36.9219 85.4832 37.2906 85.6325 37.7199C85.7819 38.1493 85.8565 38.6206 85.8565 39.1339V39.6659H80.5085V40.0019C80.5085 40.3193 80.5599 40.6133 80.6625 40.8839C80.7652 41.1546 80.9099 41.3879 81.0965 41.5839C81.2925 41.7799 81.5259 41.9339 81.7965 42.0459C82.0765 42.1486 82.3845 42.1999 82.7205 42.1999C83.2059 42.1999 83.6259 42.0879 83.9805 41.8639C84.3352 41.6399 84.6059 41.3319 84.7925 40.9399L85.6185 41.4999C85.4039 41.9853 85.0445 42.3866 84.5405 42.7039C84.0459 43.0119 83.4392 43.1659 82.7205 43.1659ZM82.6505 36.5299C82.3425 36.5299 82.0579 36.5859 81.7965 36.6979C81.5352 36.8099 81.3065 36.9639 81.1105 37.1599C80.9239 37.3559 80.7745 37.5893 80.6625 37.8599C80.5599 38.1213 80.5085 38.4106 80.5085 38.7279V38.8259H84.6525V38.6719C84.6525 38.3546 84.6012 38.0653 84.4985 37.8039C84.4052 37.5426 84.2699 37.3186 84.0925 37.1319C83.9245 36.9359 83.7145 36.7866 83.4625 36.6839C83.2199 36.5813 82.9492 36.5299 82.6505 36.5299ZM93.7191 42.9979C93.2804 42.9979 92.9677 42.8859 92.7811 42.6619C92.5944 42.4379 92.4777 42.1579 92.4311 41.8219H92.3611C92.2024 42.2419 91.9457 42.5733 91.5911 42.8159C91.2457 43.0493 90.7791 43.1659 90.1911 43.1659C89.4351 43.1659 88.8331 42.9699 88.3851 42.5779C87.9371 42.1859 87.7131 41.6493 87.7131 40.9679C87.7131 40.2959 87.9557 39.7779 88.4411 39.4139C88.9357 39.0499 89.7291 38.8679 90.8211 38.8679H92.3611V38.1539C92.3611 37.6219 92.2117 37.2253 91.9131 36.9639C91.6144 36.6933 91.1897 36.5579 90.6391 36.5579C90.1537 36.5579 89.7571 36.6559 89.4491 36.8519C89.1411 37.0386 88.8937 37.2953 88.7071 37.6219L87.9511 37.0619C88.0444 36.8753 88.1704 36.6933 88.3291 36.5159C88.4877 36.3386 88.6837 36.1846 88.9171 36.0539C89.1504 35.9139 89.4164 35.8066 89.7151 35.7319C90.0137 35.6479 90.3451 35.6059 90.7091 35.6059C91.5584 35.6059 92.2304 35.8206 92.7251 36.2499C93.2291 36.6793 93.4811 37.2766 93.4811 38.0419V42.0179H94.4891V42.9979H93.7191ZM90.3871 42.2279C90.6764 42.2279 90.9377 42.1953 91.1711 42.1299C91.4137 42.0553 91.6237 41.9619 91.8011 41.8499C91.9784 41.7286 92.1137 41.5886 92.2071 41.4299C92.3097 41.2619 92.3611 41.0846 92.3611 40.8979V39.7079H90.8211C90.1491 39.7079 89.6591 39.8013 89.3511 39.9879C89.0431 40.1746 88.8891 40.4453 88.8891 40.7999V41.0939C88.8891 41.4673 89.0197 41.7519 89.2811 41.9479C89.5517 42.1346 89.9204 42.2279 90.3871 42.2279ZM96.5136 35.7739H97.6336V36.9499H97.6896C98.1563 36.0539 98.8983 35.6059 99.9156 35.6059C100.802 35.6059 101.493 35.9373 101.988 36.5999C102.492 37.2626 102.744 38.1913 102.744 39.3859C102.744 40.5806 102.492 41.5093 101.988 42.1719C101.493 42.8346 100.802 43.1659 99.9156 43.1659C98.8983 43.1659 98.1563 42.7179 97.6896 41.8219H97.6336V45.7979H96.5136V35.7739ZM99.4816 42.1719C100.135 42.1719 100.639 41.9759 100.994 41.5839C101.358 41.1826 101.54 40.6553 101.54 40.0019V38.7699C101.54 38.1166 101.358 37.5939 100.994 37.2019C100.639 36.8006 100.135 36.5999 99.4816 36.5999C99.2296 36.5999 98.9916 36.6326 98.7676 36.6979C98.5436 36.7633 98.3476 36.8613 98.1796 36.9919C98.0116 37.1133 97.8763 37.2673 97.7736 37.4539C97.6803 37.6313 97.6336 37.8413 97.6336 38.0839V40.6879C97.6336 40.9306 97.6803 41.1453 97.7736 41.3319C97.8763 41.5093 98.0116 41.6633 98.1796 41.7939C98.3476 41.9153 98.5436 42.0086 98.7676 42.0739C98.9916 42.1393 99.2296 42.1719 99.4816 42.1719ZM107.778 43.1659C107.274 43.1659 106.817 43.0773 106.406 42.8999C106.005 42.7226 105.659 42.4706 105.37 42.1439C105.09 41.8079 104.875 41.4113 104.726 40.9539C104.577 40.4873 104.502 39.9646 104.502 39.3859C104.502 38.8166 104.577 38.2986 104.726 37.8319C104.875 37.3653 105.09 36.9686 105.37 36.6419C105.659 36.3059 106.005 36.0493 106.406 35.8719C106.817 35.6946 107.274 35.6059 107.778 35.6059C108.282 35.6059 108.735 35.6946 109.136 35.8719C109.547 36.0493 109.892 36.3059 110.172 36.6419C110.461 36.9686 110.681 37.3653 110.83 37.8319C110.979 38.2986 111.054 38.8166 111.054 39.3859C111.054 39.9646 110.979 40.4873 110.83 40.9539C110.681 41.4113 110.461 41.8079 110.172 42.1439C109.892 42.4706 109.547 42.7226 109.136 42.8999C108.735 43.0773 108.282 43.1659 107.778 43.1659ZM107.778 42.1999C108.403 42.1999 108.907 42.0133 109.29 41.6399C109.673 41.2666 109.864 40.6879 109.864 39.9039V38.8679C109.864 38.0839 109.673 37.5053 109.29 37.1319C108.907 36.7586 108.403 36.5719 107.778 36.5719C107.153 36.5719 106.649 36.7586 106.266 37.1319C105.883 37.5053 105.692 38.0839 105.692 38.8679V39.9039C105.692 40.6879 105.883 41.2666 106.266 41.6399C106.649 42.0133 107.153 42.1999 107.778 42.1999ZM113.345 42.9979V35.7739H114.465V36.9499H114.521C114.595 36.7726 114.689 36.6046 114.801 36.4459C114.913 36.2779 115.048 36.1333 115.207 36.0119C115.375 35.8906 115.571 35.7926 115.795 35.7179C116.019 35.6433 116.28 35.6059 116.579 35.6059C117.335 35.6059 117.941 35.8486 118.399 36.3339C118.856 36.8099 119.085 37.4866 119.085 38.3639V42.9979H117.965V38.5599C117.965 37.8973 117.82 37.4073 117.531 37.0899C117.241 36.7633 116.817 36.5999 116.257 36.5999C116.033 36.5999 115.813 36.6279 115.599 36.6839C115.384 36.7399 115.193 36.8239 115.025 36.9359C114.857 37.0479 114.721 37.1926 114.619 37.3699C114.516 37.5473 114.465 37.7526 114.465 37.9859V42.9979H113.345ZM124.651 43.1659C123.895 43.1659 123.242 43.0399 122.691 42.7879C122.15 42.5266 121.688 42.1813 121.305 41.7519L122.061 41.0939C122.407 41.4579 122.785 41.7379 123.195 41.9339C123.606 42.1299 124.101 42.2279 124.679 42.2279C125.239 42.2279 125.697 42.1299 126.051 41.9339C126.415 41.7286 126.597 41.4113 126.597 40.9819C126.597 40.7953 126.56 40.6413 126.485 40.5199C126.42 40.3893 126.327 40.2866 126.205 40.2119C126.084 40.1373 125.949 40.0813 125.799 40.0439C125.65 39.9973 125.491 39.9599 125.323 39.9319L124.189 39.7639C123.937 39.7266 123.662 39.6753 123.363 39.6099C123.074 39.5446 122.808 39.4419 122.565 39.3019C122.323 39.1526 122.117 38.9566 121.949 38.7139C121.791 38.4713 121.711 38.1539 121.711 37.7619C121.711 37.3979 121.781 37.0853 121.921 36.8239C122.071 36.5533 122.276 36.3293 122.537 36.1519C122.799 35.9653 123.107 35.8299 123.461 35.7459C123.816 35.6526 124.203 35.6059 124.623 35.6059C125.277 35.6059 125.841 35.7086 126.317 35.9139C126.803 36.1193 127.218 36.4039 127.563 36.7679L126.835 37.4539C126.751 37.3513 126.644 37.2486 126.513 37.1459C126.392 37.0339 126.238 36.9359 126.051 36.8519C125.874 36.7586 125.664 36.6839 125.421 36.6279C125.179 36.5719 124.899 36.5439 124.581 36.5439C124.012 36.5439 123.573 36.6419 123.265 36.8379C122.967 37.0339 122.817 37.3186 122.817 37.6919C122.817 37.8786 122.85 38.0373 122.915 38.1679C122.99 38.2893 123.088 38.3873 123.209 38.4619C123.331 38.5366 123.466 38.5973 123.615 38.6439C123.774 38.6813 123.933 38.7139 124.091 38.7419L125.225 38.9099C125.487 38.9473 125.762 38.9986 126.051 39.0639C126.341 39.1293 126.607 39.2366 126.849 39.3859C127.092 39.5259 127.293 39.7173 127.451 39.9599C127.619 40.2026 127.703 40.5199 127.703 40.9119C127.703 41.6306 127.423 42.1859 126.863 42.5779C126.313 42.9699 125.575 43.1659 124.651 43.1659Z" fill="#EFEFEF"/>
</svg>
