<svg width="63" height="57" viewBox="0 0 63 57" fill="none" xmlns="http://www.w3.org/2000/svg">
<path d="M59.283 0.00419356C58.5852 0.0346513 57.9059 0.227872 57.2933 0.471909C56.687 0.714312 53.1964 2.1965 48.0417 4.38902C42.887 6.58154 36.1863 9.43666 29.5441 12.2678C16.2596 17.9301 3.20524 23.5013 3.20524 23.5013L3.30038 23.4651C3.30038 23.4651 2.51249 23.7271 1.71367 24.2808C1.31426 24.5577 0.884564 24.9151 0.532732 25.4362C0.1809 25.9573 -0.0763121 26.6958 0.0206188 27.4769C0.361084 30.2204 3.21923 30.9987 3.21923 30.9987L3.23042 31.0042L15.9857 35.3473C16.3109 36.4266 19.8544 48.1927 20.6339 50.6845C21.0644 52.0621 21.4673 52.8568 21.8876 53.3989C22.0979 53.6702 22.3183 53.8801 22.562 54.0336C22.6588 54.0946 22.7607 54.1404 22.8614 54.1812H22.867C22.8794 54.1866 22.8911 54.1871 22.9034 54.1923L22.8698 54.184C22.8932 54.1934 22.9163 54.2092 22.9398 54.2174C22.9853 54.2332 23.0131 54.2327 23.0713 54.2452C24.5321 54.7526 25.741 53.8109 25.741 53.8109L25.7914 53.7719L33.627 46.5418L46.3431 56.4056L46.5026 56.478C48.7284 57.4612 50.7413 56.9127 51.856 56.0103C52.9707 55.1079 53.4091 53.9445 53.4091 53.9445L53.4567 53.822L62.8007 5.37178C63.0397 4.28784 63.0737 3.35089 62.8482 2.50424C62.6227 1.65759 62.0749 0.921603 61.3874 0.513669C60.7 0.105734 59.9809 -0.0262642 59.283 0.00419356ZM59.3586 2.90236C59.642 2.8893 59.8521 2.92153 59.9183 2.96082C59.9845 3.00011 60.0142 2.99494 60.0778 3.23365C60.1414 3.47237 60.1758 3.97517 60.0022 4.76208L59.9966 4.77878L50.7058 52.9479C50.6838 52.9964 50.4902 53.4419 50.0482 53.7998C49.5973 54.1648 49.0957 54.4497 47.7647 53.8944L33.8593 43.1064L33.4675 42.8001L33.4591 42.8085L29.3006 39.7043L52.6703 12.3513C52.8499 12.1417 52.9646 11.8848 53.0005 11.6117C53.0364 11.3386 52.9921 11.061 52.8728 10.8124C52.7535 10.5639 52.5644 10.355 52.3283 10.2111C52.0922 10.0672 51.8193 9.99447 51.5426 10.0016C51.2721 10.0086 51.0092 10.0916 50.7842 10.241L16.9679 32.6691L4.19308 28.3177C4.19308 28.3177 2.92454 27.6154 2.86383 27.1261C2.86046 27.099 2.84548 27.1235 2.9114 27.0259C2.97732 26.9282 3.14301 26.7634 3.35075 26.6194C3.76623 26.3314 4.24065 26.1573 4.24065 26.1573L4.28823 26.1406L4.3358 26.1211C4.3358 26.1211 17.3908 20.5495 30.6747 14.8876C37.3166 12.0566 44.0161 9.20354 49.1695 7.01157C54.3216 4.82016 58.0443 3.2428 58.3595 3.11673C58.7184 2.97376 59.0752 2.91541 59.3586 2.90236ZM43.8609 18.259L26.1384 39.0027L26.13 39.0111C26.1023 39.0442 26.0762 39.0786 26.0516 39.1141C26.0235 39.1527 25.9974 39.1926 25.9733 39.2338C25.8737 39.4019 25.8099 39.5886 25.7858 39.7822C25.7858 39.786 25.7858 39.7897 25.7858 39.7934L23.4771 50.1221C23.4387 50.0105 23.4118 49.9697 23.3707 49.8381V49.8353C22.6375 47.4913 19.2942 36.3948 18.8317 34.8601L43.8609 18.259ZM28.1393 42.402L31.3239 44.7796L26.6449 49.0948L28.1393 42.402Z" fill="#EFEFEF"/>
</svg>
