<svg width="89" height="57" viewBox="0 0 89 57" fill="none" xmlns="http://www.w3.org/2000/svg">
<path d="M6.99562 0C2.46099 0 -0.991953 4.47808 0.258613 8.88095C3.51469 20.3578 8.34153 31.5963 15.5463 40.4325C22.751 49.2688 32.4953 55.6737 44.956 56.9444C49.1037 57.3671 52.6808 53.9715 52.6808 49.8532V41.631C52.6808 41.1179 53.0297 40.7533 53.4276 40.7421C53.5013 40.7403 53.5602 40.7381 53.5975 40.7381C55.0285 40.7381 57.969 42.5386 60.5519 45.3373C63.1347 48.136 65.4192 51.6007 66.5184 53.5198V53.5238C67.7621 55.6915 70.0795 57 72.5441 57H82.4027C87.3127 57.0037 90.5982 51.4334 88.1953 47.119C84.4228 40.3426 76.8966 33.6404 73.1329 30.2976C80.0287 22.6925 84.6007 14.4046 86.6267 8.90873C88.1555 4.75643 85.0031 0.0833333 80.5574 0.0833333H73.5201C70.4611 0.0833333 67.609 1.5802 66.4433 3.97619C60.9664 15.2476 56.0844 19.3874 52.6453 22.369V7.0754C52.6453 3.25993 49.4929 0.11427 45.7067 0.107143L33.3826 0.0873016C29.458 0.0824254 27.0245 4.95027 29.3759 8.10714L31.7546 11.3056L31.7586 11.3135C32.1663 11.8549 32.3829 12.5037 32.3829 13.1706V13.1746L32.4303 25.9286C27.5285 20.7368 22.203 9.73923 20.5961 4.83333V4.82936C19.6576 1.96361 16.9577 0.0286306 13.9776 0.0198413H13.9737L6.99957 0H6.99562ZM6.99562 6.09524L13.9618 6.11508C14.39 6.1161 14.7049 6.34813 14.8311 6.73413C16.8264 12.8278 22.069 24.4383 28.7161 30.9405C30.4422 32.6293 32.9756 32.9717 34.9394 32.1706C36.9032 31.3696 38.5035 29.2937 38.5035 26.8571V26.8532L38.4521 13.1706C38.4521 11.1779 37.8026 9.24 36.6108 7.65079L36.6068 7.64286L35.5202 6.18651L45.6949 6.20238C46.2261 6.20342 46.576 6.55105 46.576 7.0754V22.5238C46.576 27.4706 52.7796 30.3128 56.5097 27.0794H56.5136C59.9328 24.1133 65.9832 18.8195 71.8961 6.65079C72.0332 6.36895 71.9139 6.17857 73.5201 6.17857H80.5574C80.9671 6.17857 81.0871 6.37453 80.9328 6.79365C79.2115 11.4631 74.8199 19.6059 68.3083 26.6508C66.3013 28.8225 66.3831 32.4107 68.6521 34.4286C72.209 37.5881 79.9718 44.8376 82.8966 50.0913C83.1642 50.5718 82.963 50.9052 82.4066 50.9048H72.5441C72.2048 50.9048 71.9258 50.7384 71.7776 50.4802C70.4632 48.1854 68.0529 44.497 65.005 41.1944C61.9571 37.8918 58.3288 34.6429 53.5975 34.6429C53.4635 34.6429 53.3537 34.6447 53.2696 34.6468H53.2577C49.4921 34.7534 46.6116 37.9627 46.6116 41.631V49.8532C46.6116 50.485 46.1265 50.9378 45.5685 50.881C34.7982 49.7826 26.6804 44.4696 20.2405 36.5714C13.8006 28.6732 9.20122 18.1599 6.09472 7.21032C5.92104 6.59884 6.29452 6.09524 6.99562 6.09524Z" fill="#EFEFEF"/>
</svg>
