<svg width="78" height="57" viewBox="0 0 78 57" fill="none" xmlns="http://www.w3.org/2000/svg">
<path d="M28.6672 0.00982057C28.6672 0.00982057 17.8708 0.743136 10.8101 6.34776C10.777 6.36086 10.7372 6.3805 10.7041 6.40015C9.47875 7.51976 8.55807 9.25484 7.41881 11.7429C6.27956 14.2309 5.07407 17.4326 3.97456 21.0141C1.78215 28.1836 0.000414401 36.9833 0.000414401 45.2659C-0.00620875 45.5605 0.066651 45.8486 0.212369 46.104C2.68958 50.4056 7.2466 53.005 11.4989 54.6419C15.7513 56.2787 19.679 56.9335 21.6727 56.9989C22.2357 57.0186 22.7723 56.7632 23.1034 56.318L27.2365 50.661C30.5682 51.4401 34.4761 51.9705 39 51.9705C43.5239 51.9705 47.4318 51.4401 50.7635 50.661L54.8966 56.318C55.2277 56.7632 55.7643 57.0186 56.3273 56.9989C58.321 56.9335 62.2487 56.2787 66.5011 54.6419C70.7534 53.005 75.3104 50.4056 77.7876 46.104C77.9333 45.8486 78.0062 45.5605 77.9996 45.2659C77.9996 36.9833 76.2178 28.1836 74.0254 21.0141C72.9259 17.4326 71.7204 14.2309 70.5812 11.7429C69.4419 9.25484 68.5213 7.51976 67.2959 6.40015C67.2628 6.3805 67.223 6.36086 67.1899 6.34776C60.1292 0.743136 49.3328 0.00982057 49.3328 0.00982057C49.2069 -0.00327352 49.0877 -0.00327352 48.9618 0.00982057C48.3724 0.0883901 47.8756 0.468144 47.6371 1.00504C47.6371 1.00504 47.0609 2.2556 46.6833 4.04306C43.3782 3.51926 40.5963 3.36212 39 3.36212C37.4037 3.36212 34.6218 3.51926 31.3167 4.04306C30.9391 2.2556 30.3629 1.00504 30.3629 1.00504C30.0714 0.350289 29.3892 -0.0491062 28.6672 0.00982057ZM27.6075 3.62402C27.7333 3.96449 27.8194 4.28531 27.9254 4.67161C24.1036 5.54898 19.9175 6.98287 16.003 9.38579C15.387 9.64114 14.9829 10.2304 14.9631 10.8917C14.9498 11.5465 15.3274 12.1554 15.9235 12.4435C16.5262 12.725 17.2416 12.6399 17.7516 12.2143C25.6071 7.40191 35.6021 6.71442 39 6.71442C42.3979 6.71442 52.3929 7.40191 60.2484 12.2143C60.7584 12.6399 61.4738 12.725 62.0765 12.4435C62.6726 12.1554 63.0502 11.5465 63.0369 10.8917C63.0171 10.2304 62.613 9.64114 61.997 9.38579C58.0825 6.98287 53.8964 5.54898 50.0746 4.67161C50.1806 4.28531 50.2667 3.96449 50.3925 3.62402C52.3266 3.85973 59.8444 4.86149 64.9644 8.86199C65.2956 9.16318 66.4481 10.8393 67.5079 13.1571C68.5676 15.4749 69.6804 18.4933 70.7402 21.9569C72.8067 28.7139 74.4758 37.0488 74.5553 44.6897C72.6279 47.7736 69.0114 50.0652 65.2823 51.4991C61.8911 52.802 58.725 53.3847 57.0691 53.5419L54.2077 49.7182C55.6649 49.2533 56.9764 48.7491 58.1289 48.2515C62.4077 46.3921 64.6995 44.4278 64.6995 44.4278C65.4016 43.8058 65.4612 42.7386 64.8319 42.0445C64.2027 41.3505 63.123 41.2916 62.4209 41.9136C62.4209 41.9136 60.6458 43.5177 56.7512 45.2135C55.3205 45.8355 53.5851 46.451 51.6113 46.9944C51.1543 46.942 50.6972 47.073 50.3396 47.3611C47.1801 48.1206 43.4245 48.6182 39 48.6182C34.5423 48.6182 30.7801 48.0748 27.6075 47.3087C27.2498 47.073 26.8126 46.9748 26.3887 47.0468C24.4083 46.5034 22.6861 45.8355 21.2488 45.2135C17.3542 43.5177 15.5791 41.9136 15.5791 41.9136C15.1949 41.56 14.665 41.4094 14.1484 41.4945C13.4926 41.5928 12.9495 42.0576 12.7707 42.6927C12.5852 43.3213 12.7972 44.0022 13.3005 44.4278C13.3005 44.4278 15.5923 46.3921 19.8711 48.2515C21.0236 48.7491 22.3351 49.2533 23.7923 49.7182L20.9309 53.5419C19.275 53.3847 16.1089 52.802 12.7177 51.4991C8.9886 50.0652 5.37213 47.7736 3.44467 44.6897C3.52415 37.0488 5.19329 28.7139 7.25985 21.9569C8.31962 18.4933 9.43238 15.4749 10.4922 13.1571C11.5519 10.8393 12.7044 9.16318 13.0356 8.86199C18.1556 4.86149 25.6734 3.85973 27.6075 3.62402ZM27.9784 23.4759C23.6532 23.4759 20.348 27.3586 20.348 31.8567C20.348 36.3548 23.6532 40.2374 27.9784 40.2374C32.3036 40.2374 35.6087 36.3548 35.6087 31.8567C35.6087 27.3586 32.3036 23.4759 27.9784 23.4759ZM50.0216 23.4759C45.6964 23.4759 42.3913 27.3586 42.3913 31.8567C42.3913 36.3548 45.6964 40.2374 50.0216 40.2374C54.3468 40.2374 57.652 36.3548 57.652 31.8567C57.652 27.3586 54.3468 23.4759 50.0216 23.4759ZM27.9784 26.8282C30.2105 26.8282 32.2175 28.9496 32.2175 31.8567C32.2175 34.7638 30.2105 36.8851 27.9784 36.8851C25.7462 36.8851 23.7393 34.7638 23.7393 31.8567C23.7393 28.9496 25.7462 26.8282 27.9784 26.8282ZM50.0216 26.8282C52.2538 26.8282 54.2607 28.9496 54.2607 31.8567C54.2607 34.7638 52.2538 36.8851 50.0216 36.8851C47.7895 36.8851 45.7825 34.7638 45.7825 31.8567C45.7825 28.9496 47.7895 26.8282 50.0216 26.8282Z" fill="#EFEFEF"/>
</svg>
