<svg width="33" height="34" viewBox="0 0 33 34" fill="none" xmlns="http://www.w3.org/2000/svg">
<path d="M1.41312 3.54436L12.1646 14.47V31.5021C12.1646 32.6096 13.2918 33.328 14.2456 32.8491L20.026 29.8558C20.5173 29.5864 20.8352 29.0775 20.8352 28.5088V14.47L31.5868 3.54436C31.7848 3.33517 31.9192 3.07038 31.9733 2.78282C32.0274 2.49527 31.9989 2.19759 31.8912 1.92669C31.7835 1.65579 31.6013 1.42359 31.3674 1.25886C31.1335 1.09414 30.858 1.00414 30.5752 1.00003H2.45359C2.16828 0.99829 1.88887 1.08406 1.65055 1.24653C1.41224 1.40899 1.2257 1.64088 1.11443 1.91298C1.00316 2.18507 0.972147 2.48518 1.0253 2.7755C1.07846 3.06582 1.2134 3.33334 1.41312 3.54436Z" stroke="#EFEFEF" stroke-width="2"/>
</svg>
